<svg width="127" height="32" viewBox="0 0 127 32" fill="none" xmlns="http://www.w3.org/2000/svg">
<path d="M56.3531 5.6206V9.11691H40.667V14.5976H53.5183V17.8734H40.667V26H36.4777V5.6206H56.3531ZM65.5582 26.3465C64.0043 26.3465 62.5869 26.0105 61.306 25.3385C60.046 24.6456 59.0381 23.6901 58.2821 22.4722C57.5472 21.2333 57.1797 19.8053 57.1797 18.1884C57.1797 16.5295 57.5577 15.0911 58.3136 13.8732C59.0696 12.6552 60.088 11.7103 61.369 11.0383C62.6709 10.3453 64.1408 9.99887 65.7787 9.99887C67.5846 9.99887 69.0336 10.3663 70.1255 11.1013C71.2384 11.8153 72.0469 12.7917 72.5509 14.0306C73.0548 15.2696 73.3068 16.6555 73.3068 18.1884C73.3068 19.1124 73.1598 20.0573 72.8658 21.0233C72.5719 21.9682 72.1204 22.8502 71.5114 23.6691C70.9025 24.4671 70.1045 25.118 69.1176 25.622C68.1306 26.105 66.9442 26.3465 65.5582 26.3465ZM66.8812 23.1967C68.1201 23.1967 69.191 22.9867 70.094 22.5667C70.9969 22.1467 71.6899 21.5587 72.1729 20.8028C72.6559 20.0468 72.8973 19.1754 72.8973 18.1884C72.8973 17.1175 72.6454 16.2145 72.1414 15.4796C71.6584 14.7236 70.9655 14.1566 70.0625 13.7787C69.1805 13.3797 68.1201 13.1802 66.8812 13.1802C65.1383 13.1802 63.7838 13.6422 62.8179 14.5661C61.8519 15.4691 61.369 16.6765 61.369 18.1884C61.369 19.1964 61.6 20.0783 62.0619 20.8343C62.5239 21.5692 63.1644 22.1467 63.9833 22.5667C64.8233 22.9867 65.7892 23.1967 66.8812 23.1967ZM72.8973 10.3453H76.9921V26H73.1808C73.1808 26 73.1493 25.8005 73.0863 25.4015C73.0443 24.9816 73.0023 24.4566 72.9603 23.8266C72.9183 23.1967 72.8973 22.5772 72.8973 21.9682V10.3453ZM80.6981 10.3453H84.7929V26H80.6981V10.3453ZM90.809 13.7157C89.6331 13.7157 88.6147 13.9467 87.7537 14.4086C86.8928 14.8496 86.1998 15.3956 85.6748 16.0465C85.1499 16.6975 84.7824 17.3275 84.5724 17.9364L84.5409 16.204C84.5619 15.952 84.6459 15.5846 84.7929 15.1016C84.9399 14.5976 85.1604 14.0621 85.4543 13.4952C85.7483 12.9072 86.1368 12.3507 86.6198 11.8258C87.1027 11.2798 87.6907 10.8388 88.3837 10.5028C89.0766 10.1669 89.8851 9.99887 90.809 9.99887V13.7157ZM93.3405 10.3453H97.4353V26H93.3405V10.3453ZM104.711 9.99887C105.677 9.99887 106.57 10.1249 107.389 10.3768C108.208 10.6288 108.922 11.0173 109.531 11.5423C110.14 12.0673 110.612 12.7392 110.948 13.5582C111.284 14.3561 111.452 15.3116 111.452 16.4245V26H107.357V17.149C107.357 15.8261 107.032 14.8601 106.381 14.2511C105.751 13.6212 104.711 13.3062 103.262 13.3062C102.171 13.3062 101.184 13.5162 100.302 13.9362C99.4196 14.3561 98.7057 14.8916 98.1597 15.5426C97.6137 16.1725 97.2988 16.834 97.2148 17.527L97.1833 15.9205C97.2883 15.1856 97.5298 14.4716 97.9077 13.7787C98.2857 13.0857 98.7897 12.4557 99.4196 11.8888C100.071 11.3008 100.837 10.8388 101.719 10.5028C102.601 10.1669 103.598 9.99887 104.711 9.99887ZM118.35 9.99887C119.316 9.99887 120.209 10.1249 121.027 10.3768C121.846 10.6288 122.56 11.0173 123.169 11.5423C123.778 12.0673 124.251 12.7392 124.587 13.5582C124.944 14.3561 125.122 15.3116 125.122 16.4245V26H121.027V17.149C121.027 15.8261 120.702 14.8601 120.051 14.2511C119.4 13.6212 118.35 13.3062 116.901 13.3062C115.809 13.3062 114.822 13.5162 113.94 13.9362C113.058 14.3561 112.344 14.8916 111.798 15.5426C111.253 16.1725 110.948 16.834 110.885 17.527L110.822 15.8261C110.927 15.1331 111.179 14.4401 111.578 13.7472C111.977 13.0542 112.502 12.4242 113.153 11.8573C113.804 11.2903 114.56 10.8388 115.421 10.5028C116.303 10.1669 117.279 9.99887 118.35 9.99887Z" fill="white"/>
<path d="M12.3277 3.94576C5.16123 7.06307 2.9039 11.6742 5.55572 17.7805C2.05691 13.6481 0.894601 7.98448 2.47645 2.78094C-0.408871 7.01226 -0.802024 12.498 1.45003 17.1091C3.70208 21.7189 8.24315 24.7279 13.3132 24.9686C10.4187 23.8292 8.16661 21.4541 7.15868 18.4772C6.1507 15.4989 6.4911 12.2225 8.08746 9.52244C6.88818 12.2492 6.78135 15.1686 7.76553 18.2819C12.3857 15.3599 14.0059 12.2359 12.6232 8.90993C11.5097 6.63914 11.4121 4.98486 12.3277 3.94576Z" fill="white"/>
<path d="M15.9855 10.1648C23.152 13.2821 25.4093 17.8932 22.7575 23.9995C26.2563 19.8671 27.4186 14.2035 25.8368 9C28.7221 13.2313 29.1152 18.7171 26.8632 23.3282C24.6111 27.9379 20.0701 30.9469 15 31.1877C17.8945 30.0482 20.1466 27.6731 21.1545 24.6962C22.1625 21.718 21.8221 18.4416 20.2258 15.7415C21.425 18.4683 21.5319 21.3877 20.5477 24.501C15.9275 21.5789 14.3073 18.4549 15.69 15.129C16.8035 12.8582 16.9011 11.2039 15.9855 10.1648Z" fill="white"/>
</svg>
