<svg width="27" height="13" viewBox="0 0 27 13" fill="none" xmlns="http://www.w3.org/2000/svg">
<path d="M15.7182 0.619685C15.7182 1.07273 15.7615 1.47581 15.8481 1.82892C15.9347 2.18203 16.0935 2.55847 16.3245 2.95821C16.8634 3.87763 17.6526 4.68379 18.692 5.37669C18.9422 5.54992 19.0674 5.64319 19.0674 5.65652C19.0674 5.66984 16.0069 5.6765 9.88594 5.6765H0.733398L0.762271 7.15557L19.0674 7.19555L18.692 7.4354C17.6526 8.12829 16.8634 8.93445 16.3245 9.85387C16.0935 10.2536 15.9347 10.6301 15.8481 10.9832C15.7615 11.3363 15.7182 11.7394 15.7182 12.1924V12.812H17.8836V12.2524C17.8836 11.8126 17.9317 11.4329 18.0279 11.1131C18.1242 10.7933 18.2878 10.4602 18.5188 10.1137C18.7305 9.82056 18.9519 9.56072 19.1828 9.3342C19.4138 9.10768 19.6929 8.88115 20.0201 8.65463C20.5398 8.29485 21.0692 8.00504 21.6081 7.78518C22.1471 7.56531 22.7534 7.39542 23.4271 7.2755C23.6388 7.24885 23.8313 7.22886 24.0045 7.21553C24.1778 7.20221 24.505 7.18888 24.9862 7.17556L26.0545 7.15557V5.63653H25.1306C24.6301 5.63653 24.2163 5.61987 23.889 5.58656C23.5618 5.55325 23.2057 5.48995 22.8208 5.39668C21.5696 5.10353 20.4965 4.59052 19.6015 3.85765C18.7064 3.12477 18.1531 2.31195 17.9413 1.41918C17.8836 1.13936 17.8643 0.852872 17.8836 0.559723V7.43866e-05H15.7182V0.619685Z" fill="white"/>
</svg>
