<svg width="23" height="13" viewBox="0 0 23 13" fill="none" xmlns="http://www.w3.org/2000/svg">
<path d="M13.2218 0.619624C13.2218 1.07267 13.2601 1.47575 13.3365 1.82886C13.4129 2.18197 13.553 2.5584 13.7568 2.95815C14.2324 3.87757 14.9287 4.68373 15.8458 5.37663C16.0666 5.54985 16.177 5.64313 16.177 5.65645C16.177 5.66978 13.4766 5.67644 8.07577 5.67644H0L0.0254756 7.15551L16.177 7.19549L15.8458 7.43533C14.9287 8.12823 14.2324 8.93439 13.7568 9.85381C13.553 10.2536 13.4129 10.63 13.3365 10.9831C13.2601 11.3362 13.2218 11.7393 13.2218 12.1923V12.812H15.1325V12.2523C15.1325 11.8126 15.175 11.4328 15.2599 11.113C15.3448 10.7932 15.4892 10.4601 15.693 10.1136C15.8798 9.8205 16.0751 9.56066 16.2789 9.33414C16.4827 9.10762 16.729 8.88109 17.0177 8.65457C17.4763 8.29479 17.9433 8.00498 18.4189 7.78511C18.8944 7.56525 19.4294 7.39536 20.0238 7.27543C20.2107 7.24879 20.3805 7.2288 20.5334 7.21547C20.6862 7.20215 20.9749 7.18882 21.3995 7.1755L22.3421 7.15551V5.63647H21.5269C21.0853 5.63647 20.7202 5.61981 20.4314 5.5865C20.1427 5.55319 19.8285 5.48989 19.4889 5.39662C18.3849 5.10347 17.4381 4.59046 16.6483 3.85759C15.8586 3.12471 15.3703 2.31189 15.1835 1.41912C15.1325 1.1393 15.1155 0.852811 15.1325 0.559662V1.33514e-05H13.2218V0.619624Z" fill="#051815"/>
</svg>
