<svg width="20" height="20" viewBox="0 0 20 20" fill="none" xmlns="http://www.w3.org/2000/svg">
<g clip-path="url(#clip0_694_605)">
<path d="M17.0711 2.92895C15.1823 1.04016 12.6711 0 10 0C7.32891 0 4.81766 1.04016 2.92895 2.92891C1.04016 4.81766 0 7.32891 0 10C0 12.6711 1.04016 15.1823 2.92895 17.0711C4.81766 18.9598 7.32891 20 10 20C12.6711 20 15.1823 18.9598 17.0711 17.071C18.9598 15.1823 20 12.6711 20 9.99996C20 7.32887 18.9598 4.81766 17.0711 2.92895ZM3.75844 3.75844C4.63777 2.8791 5.67008 2.2084 6.79523 1.77062C6.49555 2.14477 6.21512 2.5748 5.95813 3.05848C5.65965 3.6202 5.40211 4.23711 5.18762 4.89605C4.44457 4.77273 3.75609 4.62109 3.14102 4.44313C3.33499 4.2045 3.54107 3.97597 3.75844 3.75844ZM2.43082 5.45254C3.15023 5.68289 3.97297 5.87715 4.8707 6.03102C4.6207 7.09219 4.47355 8.2341 4.43844 9.41348H1.19281C1.285 7.99813 1.71008 6.64734 2.43082 5.45254ZM2.36695 14.439C1.68512 13.2711 1.28223 11.9593 1.19277 10.5865H4.44066C4.47902 11.7322 4.62324 12.8416 4.8648 13.875C3.94863 14.0236 3.10523 14.2129 2.36695 14.439ZM3.75844 16.2416C3.51121 15.9942 3.27864 15.7326 3.06191 15.4582C3.69953 15.2814 4.41234 15.1316 5.17965 15.0116C5.39566 15.6796 5.65598 16.3047 5.95809 16.8734C6.23816 17.4004 6.54609 17.8636 6.87645 18.2603C5.7198 17.8234 4.65891 17.142 3.75844 16.2416ZM9.41344 18.6764C8.5225 18.4268 7.67969 17.6132 6.99406 16.3229C6.75426 15.8716 6.54363 15.3793 6.3632 14.8546C7.32922 14.7483 8.35715 14.6855 9.41344 14.6707V18.6764ZM9.41344 13.4975C8.24203 13.5135 7.10027 13.5871 6.03102 13.7127C5.79516 12.7376 5.65324 11.6823 5.6143 10.5866H9.41348V13.4975H9.41344ZM9.41344 9.41344H5.61207C5.64766 8.28711 5.79184 7.2023 6.03504 6.20246C7.09746 6.33527 8.23684 6.41605 9.41344 6.43918V9.41344ZM9.41344 5.26594C8.35305 5.24457 7.32738 5.17543 6.3682 5.06262C6.54754 4.5434 6.75652 4.05605 6.99406 3.60891C7.67965 2.31859 8.5225 1.505 9.41344 1.25543V5.26594ZM17.6061 5.51484C18.3043 6.69426 18.7166 8.02262 18.8073 9.41344H15.5616C15.5269 8.24766 15.3826 7.11856 15.1378 6.06785C16.0414 5.92191 16.8744 5.73625 17.6061 5.51484ZM16.2415 3.75844C16.4752 3.99232 16.6957 4.23892 16.9022 4.49711C16.2744 4.66855 15.5752 4.81406 14.8239 4.93117C14.6072 4.25898 14.3457 3.6302 14.0419 3.05848C13.7849 2.5748 13.5045 2.14477 13.2048 1.77062C14.3299 2.2084 15.3622 2.8791 16.2415 3.75844ZM10.5866 10.5866H14.3857C14.3465 11.6908 14.2027 12.7541 13.9635 13.7355C12.9012 13.6034 11.7623 13.5234 10.5866 13.5009V10.5866ZM10.5866 9.41344V6.44309C11.7586 6.4277 12.9013 6.35477 13.9716 6.22965C14.2108 7.22195 14.3527 8.2973 14.3879 9.41344H10.5866ZM10.5865 1.25543H10.5865C11.4775 1.505 12.3203 2.31859 13.0059 3.60891C13.2472 4.06309 13.4591 4.55883 13.6403 5.08734C12.673 5.19328 11.6439 5.25566 10.5865 5.26992V1.25543ZM10.5866 18.6764V14.6741C11.6459 14.6949 12.6708 14.7634 13.6296 14.8755C13.4508 15.3924 13.2425 15.8776 13.0059 16.3229C12.3203 17.6132 11.4775 18.4268 10.5866 18.6764ZM16.2415 16.2416C15.3411 17.142 14.2802 17.8234 13.1235 18.2602C13.4539 17.8635 13.7618 17.4004 14.0419 16.8734C14.3395 16.3132 14.5965 15.698 14.8106 15.0411C15.571 15.1666 16.2744 15.3218 16.9011 15.5043C16.6949 15.762 16.4747 16.0081 16.2415 16.2416ZM17.6018 14.4925C16.8739 14.2585 16.0393 14.0616 15.1281 13.9062C15.3741 12.864 15.5206 11.7437 15.5594 10.5866H18.8073C18.7164 11.9802 18.3027 13.3113 17.6018 14.4925Z" fill="black"/>
</g>
<defs>
<clipPath id="clip0_694_605">
<rect width="20" height="20" fill="white"/>
</clipPath>
</defs>
</svg>
