<svg width="19" height="13" viewBox="0 0 19 13" fill="none" xmlns="http://www.w3.org/2000/svg">
<g clip-path="url(#clip0_694_610)">
<path d="M17.3301 0H1.66992C0.75102 0 0 0.727603 0 1.625V11.375C0 12.2727 0.751502 13 1.66992 13H17.3301C18.249 13 19 12.2724 19 11.375V1.625C19 0.727386 18.2486 0 17.3301 0ZM17.0737 1.08333L9.93136 8.05617C9.71375 8.26858 9.28636 8.26872 9.06864 8.05617L1.92635 1.08333H17.0737ZM1.11328 11.1758V1.82415L5.9028 6.5L1.11328 11.1758ZM1.92635 11.9167L6.68874 7.26729L8.28018 8.82097C8.93234 9.45765 10.0679 9.45739 10.7199 8.82097L12.3113 7.26732L17.0737 11.9167H1.92635ZM17.8867 11.1758L13.0972 6.5L17.8867 1.82415V11.1758Z" fill="#051815"/>
</g>
<defs>
<clipPath id="clip0_694_610">
<rect width="19" height="13" fill="white"/>
</clipPath>
</defs>
</svg>
