<svg width="17" height="17" viewBox="0 0 17 17" fill="none" xmlns="http://www.w3.org/2000/svg">
<g clip-path="url(#clip0_694_613)">
<path d="M13.4352 10.5309C13.0872 10.1685 12.6674 9.97475 12.2225 9.97475C11.7812 9.97475 11.3578 10.1649 10.9954 10.5273L9.86159 11.6575C9.7683 11.6073 9.67501 11.5606 9.58531 11.514C9.45615 11.4494 9.33416 11.3884 9.23011 11.3238C8.16807 10.6493 7.2029 9.77024 6.27721 8.63286C5.82871 8.06596 5.52732 7.58876 5.30846 7.10438C5.60267 6.83528 5.87536 6.55542 6.14087 6.28632C6.24133 6.18586 6.34179 6.08181 6.44226 5.98135C7.19573 5.22788 7.19573 4.25195 6.44226 3.49848L5.46274 2.51896C5.35151 2.40773 5.2367 2.29292 5.12906 2.1781C4.91378 1.95565 4.68774 1.72602 4.45452 1.51074C4.10649 1.1663 3.69028 0.983311 3.25255 0.983311C2.81482 0.983311 2.39144 1.1663 2.03264 1.51074L2.02547 1.51792L0.80556 2.74859C0.3463 3.20785 0.0843785 3.76757 0.026971 4.417C-0.0591402 5.46468 0.249425 6.44061 0.486231 7.07927C1.06748 8.64721 1.93577 10.1003 3.23103 11.6575C4.80255 13.534 6.69341 15.0158 8.85337 16.0599C9.6786 16.451 10.7801 16.9139 12.0108 16.9928C12.0861 16.9964 12.1651 17 12.2368 17C13.0656 17 13.7617 16.7022 14.3071 16.1102C14.3107 16.103 14.3178 16.0994 14.3214 16.0922C14.508 15.8662 14.7233 15.6617 14.9493 15.4428C15.1036 15.2957 15.2615 15.1414 15.4158 14.98C15.771 14.6104 15.9575 14.1799 15.9575 13.7385C15.9575 13.2936 15.7674 12.8667 15.405 12.5079L13.4352 10.5309ZM14.7197 14.309C14.7161 14.309 14.7161 14.3126 14.7197 14.309C14.5798 14.4597 14.4362 14.5961 14.282 14.7467C14.0487 14.9692 13.8119 15.2024 13.5895 15.4643C13.2271 15.8518 12.8001 16.0348 12.2404 16.0348C12.1866 16.0348 12.1292 16.0348 12.0754 16.0312C11.0097 15.9631 10.0195 15.5469 9.27675 15.1917C7.24596 14.2086 5.46274 12.8128 3.98091 11.044C2.75741 9.56931 1.93936 8.20589 1.39757 6.742C1.06389 5.84859 0.941903 5.15253 0.995722 4.49593C1.0316 4.07614 1.19306 3.72811 1.49086 3.4303L2.71436 2.20681C2.89017 2.04176 3.07674 1.95206 3.25973 1.95206C3.48577 1.95206 3.66876 2.0884 3.78357 2.20322L3.79434 2.21398C4.0132 2.4185 4.2213 2.63019 4.44017 2.85623C4.5514 2.97104 4.66621 3.08586 4.78103 3.20426L5.76054 4.18378C6.14087 4.5641 6.14087 4.91572 5.76054 5.29605C5.65649 5.4001 5.55603 5.50415 5.45198 5.60461C5.15059 5.91318 4.86355 6.20021 4.5514 6.48008C4.54422 6.48725 4.53705 6.49084 4.53346 6.49802C4.22489 6.80658 4.2823 7.10797 4.34688 7.31248L4.35765 7.34478C4.61239 7.96191 4.97119 8.54316 5.51656 9.23563L5.52015 9.23922C6.51043 10.4591 7.55453 11.4099 8.70626 12.1383C8.85337 12.2316 9.00406 12.3069 9.14758 12.3787C9.27675 12.4433 9.39874 12.5043 9.50279 12.5689C9.51714 12.576 9.5315 12.5868 9.54585 12.594C9.66784 12.655 9.78265 12.6837 9.90106 12.6837C10.1989 12.6837 10.3854 12.4971 10.4464 12.4361L11.6735 11.209C11.7955 11.087 11.9893 10.9399 12.2153 10.9399C12.4377 10.9399 12.6207 11.0798 12.732 11.2018L12.7391 11.209L14.7161 13.186C15.0857 13.552 15.0857 13.9287 14.7197 14.309ZM9.18705 4.04385C10.1271 4.20172 10.981 4.64662 11.6627 5.32834C12.3445 6.01005 12.7858 6.86399 12.9472 7.80403C12.9867 8.04084 13.1912 8.20589 13.4244 8.20589C13.4531 8.20589 13.4783 8.2023 13.507 8.19871C13.7725 8.15566 13.9483 7.9045 13.9052 7.63899C13.7115 6.5016 13.1733 5.46468 12.3516 4.64304C11.53 3.82139 10.4931 3.2832 9.35569 3.08945C9.09018 3.04639 8.84261 3.2222 8.79596 3.48412C8.74932 3.74605 8.92154 4.00079 9.18705 4.04385ZM16.9801 7.49906C16.6608 5.62614 15.7781 3.92186 14.4219 2.5656C13.0656 1.20935 11.3614 0.326714 9.48844 0.00738456C9.22652 -0.039259 8.97895 0.140139 8.9323 0.402061C8.88925 0.66757 9.06506 0.91514 9.33057 0.961784C11.0026 1.24523 12.5274 2.03817 13.7402 3.24732C14.9529 4.46005 15.7423 5.98494 16.0257 7.65693C16.0652 7.89373 16.2697 8.05878 16.5029 8.05878C16.5316 8.05878 16.5567 8.05519 16.5854 8.0516C16.8474 8.01214 17.0268 7.76098 16.9801 7.49906Z" fill="#051815"/>
</g>
<defs>
<clipPath id="clip0_694_613">
<rect width="17" height="17" fill="white"/>
</clipPath>
</defs>
</svg>
