<svg width="30" height="30" viewBox="0 0 30 30" fill="none" xmlns="http://www.w3.org/2000/svg">
<g clip-path="url(#clip0_10_1408)">
<path d="M15.7942 0.0599689C15.6943 0.0999279 15.5745 0.189838 15.4346 0.329699C15.075 0.689339 15.005 1.08894 15.2248 1.5285C15.3847 1.8282 15.6244 2.01801 15.9441 2.09793C16.1039 2.13789 16.3936 2.15787 16.8132 2.15787C18.1519 2.21781 19.4556 2.5325 20.7243 3.10193C21.993 3.67136 23.1169 4.43559 24.0959 5.39463C25.015 6.31371 25.7543 7.34269 26.3137 8.48155C26.6734 9.20083 26.9531 9.99004 27.1529 10.8492C27.3527 11.7083 27.4526 12.5175 27.4526 13.2768C27.4526 13.9161 27.7423 14.3057 28.3217 14.4456C28.5815 14.5255 28.8362 14.4805 29.086 14.3107C29.3357 14.1409 29.4905 13.9211 29.5505 13.6514C29.6104 13.3816 29.6004 12.8722 29.5205 12.1229C29.4406 11.3737 29.3207 10.6793 29.1609 10.04C28.7613 8.48155 28.0969 7.04299 27.1679 5.7243C26.2388 4.40562 25.1049 3.28674 23.7663 2.36766C22.4276 1.44858 20.9591 0.78924 19.3607 0.389639C18.7813 0.249779 18.0969 0.139889 17.3077 0.0599689C16.5185 -0.0199509 16.014 -0.0199509 15.7942 0.0599689ZM5.035 4.55547C4.71532 4.59543 4.34569 4.70532 3.92611 4.88514C3.50653 5.06496 3.10693 5.27475 2.72731 5.51451C1.60843 6.25377 0.889149 7.24279 0.569469 8.48155C0.489549 8.80123 0.444594 9.19583 0.434604 9.66536C0.424614 10.1349 0.464574 10.5695 0.554484 10.9691C0.644394 11.3687 0.809229 11.8482 1.04899 12.4076C2.18785 15.1249 3.62142 17.5974 5.34969 19.8252C7.07796 22.053 9.06098 23.9761 11.2987 25.5944C13.1968 26.9731 15.2148 28.1319 17.3527 29.071C18.2118 29.4506 18.8911 29.7053 19.3906 29.8352C19.8901 29.9651 20.4096 30.01 20.9491 29.9701C22.008 29.9301 22.9371 29.5954 23.7363 28.9661C24.5355 28.3367 25.1549 27.4626 25.5944 26.3437C26.034 25.2248 26.004 24.2558 25.5045 23.4366C25.2448 22.997 24.7703 22.4726 24.081 21.8632C23.3916 21.2538 22.6474 20.6843 21.8482 20.1549C21.049 19.6254 20.3497 19.2508 19.7503 19.031C18.9511 18.7513 18.1918 18.7912 17.4726 19.1509C17.2927 19.2508 17.048 19.4506 16.7383 19.7503C16.4286 20.05 16.2088 20.3097 16.079 20.5295C15.9491 20.7493 15.8891 20.9741 15.8991 21.2038C15.9091 21.4336 15.994 21.6484 16.1539 21.8482C16.3936 22.1079 16.6834 22.2228 17.023 22.1928C17.3627 22.1629 17.6424 21.998 17.8622 21.6983C18.1019 21.3587 18.3017 21.1439 18.4616 21.054C18.6214 20.9641 18.8012 20.9591 19.001 21.039C19.5405 21.1988 20.3797 21.6983 21.5185 22.5375C22.6574 23.3767 23.3567 23.996 23.6164 24.3956C23.7962 24.6953 23.7863 25.1049 23.5865 25.6244C23.4666 25.9441 23.3417 26.2038 23.2118 26.4036C23.082 26.6034 22.9071 26.8132 22.6874 27.033C22.3876 27.3327 22.0879 27.5425 21.7882 27.6624C21.4886 27.7822 21.1289 27.8422 20.7093 27.8422C20.3697 27.8422 20.07 27.8122 19.8102 27.7523C19.5505 27.6923 19.1509 27.5425 18.6114 27.3027C15.3946 25.9441 12.4975 24.0859 9.92012 21.7283C8.60144 20.5095 7.35269 19.046 6.17386 17.3377C4.99504 15.6294 4.00603 13.8562 3.20683 12.018C2.98705 11.5185 2.8372 11.1439 2.75728 10.8941C2.67736 10.6444 2.61742 10.3896 2.57746 10.1299C2.49754 9.37066 2.66238 8.69633 3.07197 8.10692C3.48156 7.51751 4.10593 7.07296 4.94509 6.77325C5.28475 6.65338 5.55448 6.62341 5.75428 6.68335C5.95408 6.74329 6.22381 6.94308 6.56348 7.28275C7.16288 7.90213 7.79225 8.71132 8.45159 9.71032C9.11093 10.7093 9.4406 11.3587 9.4406 11.6584C9.4406 11.7782 9.39564 11.8981 9.30573 12.018C9.21582 12.1379 9.06098 12.2877 8.8412 12.4676C8.62142 12.6474 8.47157 12.7872 8.39165 12.8871C8.29175 13.047 8.2368 13.2218 8.22681 13.4116C8.21682 13.6014 8.25678 13.7812 8.34669 13.9511C8.4366 14.1209 8.56647 14.2558 8.7363 14.3557C8.90613 14.4556 9.07596 14.5055 9.24579 14.5055C9.41562 14.5055 9.56547 14.4756 9.69534 14.4156C9.82521 14.3557 10 14.2458 10.2198 14.0859C10.7393 13.6863 11.1139 13.2368 11.3437 12.7373C11.5735 12.2378 11.6384 11.7283 11.5385 11.2088C11.4186 10.6494 11.0889 9.92011 10.5495 9.02101C10.03 8.16187 9.4406 7.35268 8.78126 6.59344C8.08196 5.77425 7.47257 5.20482 6.95309 4.88514C6.71333 4.74528 6.41862 4.64538 6.06897 4.58544C5.71932 4.5255 5.37466 4.51551 5.035 4.55547ZM15.7343 6.29374C15.3946 6.45358 15.1898 6.70333 15.1199 7.04299C15.05 7.38265 15.1349 7.68235 15.3747 7.94209C15.4945 8.08195 15.6294 8.17685 15.7793 8.2268C15.9291 8.27675 16.1639 8.31172 16.4836 8.3317C17.2628 8.37166 18.002 8.59144 18.7013 8.99104C19.4006 9.39064 19.9701 9.92011 20.4096 10.5794C20.8891 11.3187 21.1689 12.1579 21.2488 13.0969C21.2887 13.4965 21.3387 13.7663 21.3986 13.9061C21.4985 14.1059 21.6684 14.2608 21.9081 14.3707C22.1479 14.4805 22.3677 14.5055 22.5675 14.4456C22.7273 14.4056 22.8722 14.3357 23.002 14.2358C23.1319 14.1359 23.2268 14.026 23.2868 13.9061C23.4266 13.6264 23.4466 13.1469 23.3467 12.4676C23.2468 11.7882 23.067 11.1489 22.8072 10.5495C22.4076 9.61042 21.8182 8.78624 21.039 8.07695C20.2598 7.36766 19.3707 6.85318 18.3717 6.53349C17.9321 6.37366 17.4226 6.26876 16.8432 6.21881C16.2638 6.16886 15.8941 6.19383 15.7343 6.29374Z" fill="#EECD15"/>
</g>
<defs>
<clipPath id="clip0_10_1408">
<rect width="30" height="30" fill="white" transform="matrix(1 0 0 -1 0 30)"/>
</clipPath>
</defs>
</svg>
