<svg width="44" height="39" viewBox="0 0 44 39" fill="none" xmlns="http://www.w3.org/2000/svg">
<g clip-path="url(#clip0_499_781)">
<path d="M14.1763 25.8325H14.1783C14.18 25.8325 14.1818 25.8322 14.1834 25.8322H37.5547C37.8348 25.8321 38.1073 25.7407 38.3309 25.5717C38.5545 25.4027 38.7171 25.1653 38.7941 24.8954L43.9503 6.8129C44.0051 6.62071 44.0147 6.4184 43.9782 6.22189C43.9418 6.02538 43.8603 5.84003 43.7402 5.68042C43.62 5.52079 43.4645 5.39129 43.2859 5.3021C43.1073 5.21291 42.9105 5.16648 42.7109 5.16644H11.2034L10.282 1.01142C10.2183 0.724532 10.0589 0.467976 9.83011 0.284096C9.6013 0.100216 9.31675 3.96927e-06 9.02344 0L1.28906 0C0.57707 0 0 0.578211 0 1.29161C0 2.00501 0.57707 2.58322 1.28906 2.58322H7.98952C8.15263 3.31944 12.3991 22.467 12.6436 23.5684C11.2736 24.1652 10.3125 25.5339 10.3125 27.1238C10.3125 29.2603 12.0474 30.9986 14.1797 30.9986H37.5547C38.2667 30.9986 38.8438 30.4204 38.8438 29.707C38.8438 28.9936 38.2667 28.4154 37.5547 28.4154H14.1797C13.469 28.4154 12.8906 27.8359 12.8906 27.1238C12.8906 26.4127 13.467 25.8342 14.1763 25.8325ZM41.002 7.74966L36.5822 23.249H15.2137L11.7762 7.74966H41.002ZM12.8906 34.8735C12.8906 37.0101 14.6255 38.7483 16.7578 38.7483C18.8901 38.7483 20.625 37.01 20.625 34.8735C20.625 32.737 18.8901 30.9986 16.7578 30.9986C14.6255 30.9986 12.8906 32.737 12.8906 34.8735ZM16.7578 33.5819C17.4685 33.5819 18.0469 34.1614 18.0469 34.8735C18.0469 35.5856 17.4685 36.1651 16.7578 36.1651C16.0471 36.1651 15.4688 35.5856 15.4688 34.8735C15.4688 34.1614 16.0471 33.5819 16.7578 33.5819ZM31.1094 34.8735C31.1094 37.0101 32.8443 38.7483 34.9766 38.7483C37.1088 38.7483 38.8438 37.01 38.8438 34.8735C38.8438 32.737 37.1088 30.9986 34.9766 30.9986C32.8443 30.9986 31.1094 32.737 31.1094 34.8735ZM34.9766 33.5819C35.6873 33.5819 36.2656 34.1614 36.2656 34.8735C36.2656 35.5856 35.6873 36.1651 34.9766 36.1651C34.2659 36.1651 33.6875 35.5856 33.6875 34.8735C33.6875 34.1614 34.2659 33.5819 34.9766 33.5819Z" fill="#4CCA8E"/>
</g>
<defs>
<clipPath id="clip0_499_781">
<rect width="44" height="39" fill="white"/>
</clipPath>
</defs>
</svg>
