<svg width="84" height="84" viewBox="0 0 84 84" fill="none" xmlns="http://www.w3.org/2000/svg">
<path d="M39.8185 0.33564C37.5248 0.33564 35.6087 0.587395 34.0703 1.09089C32.5318 1.59438 31.2871 2.3776 30.336 3.44054C29.2171 4.67131 28.6018 6.34963 28.4899 8.4755C28.378 9.70627 28.4899 11.7482 28.8255 14.6014C29.2171 17.6224 29.385 19.9161 29.329 21.4825C29.2731 24.1119 28.7136 26.4615 27.6507 28.5314C26.4199 31.0489 24.4339 33.3147 21.6927 35.3286C14.0843 40.7552 8.7556 46.0279 5.70665 51.1468C2.6577 56.2657 1.86049 61.1189 3.31504 65.7063C4.60175 69.5664 7.39895 72.951 11.7066 75.8601C15.5108 78.3776 20.1262 80.3356 25.5528 81.7342C30.4759 83.021 35.2311 83.6643 39.8185 83.6643C45.4689 83.6643 50.8675 82.5734 56.0143 80.3916C60.9934 78.2657 65.399 75.2867 69.2311 71.4545C73.0633 67.6224 76.0423 63.2168 78.1682 58.2377C80.35 53.0349 81.4409 47.6224 81.4409 42C81.4409 36.3776 80.35 30.965 78.1682 25.7622C76.0423 20.7832 73.0633 16.3776 69.2311 12.5454C65.399 8.71326 60.9934 5.73425 56.0143 3.60837C50.8675 1.42655 45.4689 0.33564 39.8185 0.33564Z" fill="#F3F3ED"/>
</svg>
