<svg width="16" height="16" viewBox="0 0 16 16" fill="none" xmlns="http://www.w3.org/2000/svg">
<g clip-path="url(#clip0_977_439)">
<path d="M8.0002 15.9984H2.34052C1.98257 15.9984 1.68412 15.831 1.54212 15.5507C1.40016 15.2704 1.44187 14.9307 1.65371 14.6421L2.36501 13.6758C0.85681 12.178 0.00195312 10.1397 0.00195312 8.00004C0.00195312 3.58975 3.58995 0.00170898 8.0002 0.00170898C12.4106 0.00170898 15.9986 3.58975 15.9986 8.00004C15.9986 12.4104 12.4106 15.9984 8.0002 15.9984ZM8.0002 14.7739C11.7353 14.7739 14.7741 11.7352 14.7741 8.00004C14.7741 4.26493 11.7353 1.2262 8.0002 1.2262C4.26514 1.2262 1.22644 4.26493 1.22644 8.00004C1.22644 9.97334 2.08497 11.8448 3.58191 13.1346L4.01146 13.5046L3.07718 14.7739H8.0002Z" fill="black"/>
<path d="M5.86749 7.99999C5.86749 8.4706 5.48602 8.85215 5.01537 8.85215C4.54464 8.85215 4.16309 8.4706 4.16309 7.99999C4.16309 7.52926 4.54464 7.14771 5.01537 7.14771C5.48602 7.14771 5.86749 7.5293 5.86749 7.99999Z" fill="black"/>
<path d="M8.0006 8.85215C8.47124 8.85215 8.85276 8.47063 8.85276 7.99999C8.85276 7.52935 8.47124 7.14783 8.0006 7.14783C7.52996 7.14783 7.14844 7.52935 7.14844 7.99999C7.14844 8.47063 7.52996 8.85215 8.0006 8.85215Z" fill="black"/>
<path d="M10.985 8.85211C11.4557 8.85211 11.8372 8.47057 11.8372 7.99991C11.8372 7.52925 11.4557 7.14771 10.985 7.14771C10.5144 7.14771 10.1328 7.52925 10.1328 7.99991C10.1328 8.47057 10.5144 8.85211 10.985 8.85211Z" fill="black"/>
</g>
<defs>
<clipPath id="clip0_977_439">
<rect width="16" height="16" fill="white"/>
</clipPath>
</defs>
</svg>
