<svg width="25" height="16" viewBox="0 0 25 16" fill="none" xmlns="http://www.w3.org/2000/svg">
<g clip-path="url(#clip0_977_445)">
<path d="M24.8411 7.53721C24.6177 7.23106 19.2963 0.0408936 12.4998 0.0408936C5.70341 0.0408936 0.381733 7.23106 0.158638 7.53692C0.0555513 7.67844 0 7.84912 0 8.02433C0 8.19954 0.0555513 8.37022 0.158638 8.51174C0.381733 8.8179 5.70341 16.0081 12.4998 16.0081C19.2963 16.0081 24.6177 8.81785 24.8411 8.51199C24.9443 8.37054 24.9999 8.19984 24.9999 8.0246C24.9999 7.84936 24.9443 7.67866 24.8411 7.53721ZM12.4998 14.3563C7.49355 14.3563 3.15756 9.58404 1.87402 8.02392C3.1559 6.46242 7.48281 1.69266 12.4998 1.69266C17.5059 1.69266 21.8416 6.46409 23.1257 8.02504C21.8438 9.58648 17.5169 14.3563 12.4998 14.3563Z" fill="black"/>
<path d="M12.4998 3.06921C9.7731 3.06921 7.55469 5.29223 7.55469 8.02457C7.55469 10.7569 9.7731 12.9799 12.4998 12.9799C15.2264 12.9799 17.4448 10.7569 17.4448 8.02457C17.4448 5.29223 15.2264 3.06921 12.4998 3.06921ZM12.4998 11.3281C10.6819 11.3281 9.20308 9.84617 9.20308 8.02457C9.20308 6.20296 10.6819 4.72103 12.4998 4.72103C14.3176 4.72103 15.7964 6.20296 15.7964 8.02457C15.7964 9.84617 14.3176 11.3281 12.4998 11.3281Z" fill="black"/>
</g>
<defs>
<clipPath id="clip0_977_445">
<rect width="25" height="16" fill="white"/>
</clipPath>
</defs>
</svg>
