<svg width="14" height="14" viewBox="0 0 14 14" fill="none" xmlns="http://www.w3.org/2000/svg">
<g clip-path="url(#clip0_11_1423)">
<path d="M7 0C3.13405 0 0 3.13405 0 7C0 10.866 3.13405 14 7 14C10.866 14 14 10.866 14 7C13.9957 3.13588 10.8641 0.00431667 7 0ZM13.054 9.45228L11.0633 9.79577C11.2911 8.96011 11.4142 8.09936 11.4295 7.23333H13.5275C13.5012 7.99505 13.3409 8.74617 13.054 9.45228H13.054ZM0.4725 7.23333H2.57046C2.58585 8.09936 2.7089 8.96012 2.93676 9.79577L0.946021 9.45228C0.659102 8.74617 0.498803 7.99505 0.472471 7.23333H0.4725ZM0.946021 4.54772L2.93676 4.20423C2.70888 5.03988 2.58581 5.90064 2.5704 6.76667H0.4725C0.498823 6.00495 0.659112 5.25383 0.946021 4.54772ZM7.23333 3.74643C8.07182 3.75712 8.90817 3.8335 9.73472 3.97486L10.5583 4.11693C10.8114 4.97805 10.9475 5.86927 10.9631 6.76667H7.23333V3.74643ZM9.81423 3.51493C8.96141 3.36916 8.09846 3.29053 7.23333 3.27976V0.479762C8.571 0.608271 9.733 1.83307 10.3915 3.61553L9.81423 3.51493ZM6.76667 3.27976C5.90162 3.29053 5.03875 3.36916 4.186 3.51493L3.60847 3.61483C4.267 1.83196 5.429 0.606725 6.76667 0.478771V3.27976ZM4.26551 3.97486C5.09198 3.8335 5.92826 3.75713 6.76667 3.74646V6.76667H3.03686C3.05246 5.86927 3.18862 4.97805 3.44167 4.11693L4.26551 3.97486ZM3.03686 7.23333H6.76667V10.2535C5.92818 10.2429 5.09183 10.1665 4.26528 10.0251L3.44167 9.88307C3.18862 9.02195 3.05246 8.13073 3.03686 7.23333ZM4.18574 10.4851C5.03857 10.631 5.90151 10.7101 6.76667 10.7215V13.5215C5.429 13.3929 4.267 12.1681 3.60847 10.3856L4.18574 10.4851ZM7.23333 10.7215C8.0984 10.7101 8.96126 10.631 9.814 10.4851L10.3915 10.3852C9.733 12.168 8.571 13.3933 7.23333 13.5213V10.7215ZM9.73449 10.0251C8.90802 10.1665 8.07174 10.2429 7.23333 10.2535V7.23333H10.9631C10.9475 8.13073 10.8114 9.02195 10.5583 9.88307L9.73449 10.0251ZM11.4295 6.76667C11.4142 5.90064 11.2911 5.03989 11.0633 4.20423L13.054 4.54772C13.3409 5.25383 13.5012 6.00495 13.5275 6.76667H11.4295ZM12.8179 4.03346L10.9097 3.70417C10.5667 2.58497 9.92482 1.58056 9.05328 0.799108C10.6831 1.34299 12.0347 2.5042 12.818 4.03346H12.8179ZM4.94673 0.799079C4.07517 1.58054 3.43332 2.58496 3.0903 3.70417L1.18204 4.03346C1.96528 2.50419 3.3169 1.34296 4.94673 0.799079ZM1.18204 9.96657L3.0903 10.2958C3.43333 11.415 4.07518 12.4194 4.94673 13.2009C3.3169 12.657 1.96529 11.4958 1.18204 9.96654V9.96657ZM9.05328 13.2008C9.92481 12.4194 10.5667 11.415 10.9097 10.2958L12.818 9.96654C12.0347 11.4958 10.6831 12.657 9.05328 13.2009V13.2008Z" fill="#EECD15"/>
</g>
<defs>
<clipPath id="clip0_11_1423">
<rect width="14" height="14" fill="white"/>
</clipPath>
</defs>
</svg>
