<svg width="16" height="12" viewBox="0 0 16 12" fill="none" xmlns="http://www.w3.org/2000/svg">
<path d="M6.55259 0.794153C6.55259 1.20175 6.52561 1.56438 6.47167 1.88206C6.41772 2.19975 6.31882 2.53841 6.17496 2.89805C5.8393 3.72522 5.34779 4.4505 4.70044 5.07387C4.54459 5.22972 4.46667 5.31363 4.46667 5.32562C4.46667 5.33761 6.37277 5.3436 10.185 5.3436H15.8853L15.8673 6.67427L4.46667 6.71024L4.70044 6.92602C5.34779 7.5494 5.8393 8.27467 6.17496 9.10185C6.31882 9.46149 6.41772 9.80015 6.47167 10.1178C6.52561 10.4355 6.55259 10.7981 6.55259 11.2057V11.7632H5.20394V11.2597C5.20394 10.8641 5.17397 10.5224 5.11403 10.2347C5.05409 9.947 4.95219 9.6473 4.80833 9.33561C4.67646 9.07188 4.5386 8.83811 4.39474 8.63431C4.25089 8.43052 4.07706 8.22672 3.87327 8.02292C3.54959 7.69925 3.21992 7.43851 2.88426 7.24071C2.54859 7.0429 2.17097 6.89006 1.75139 6.78217C1.61952 6.75819 1.49964 6.74021 1.39175 6.72822C1.28386 6.71623 1.08006 6.70424 0.780359 6.69225L0.115025 6.67427V5.30764H0.69045C1.00214 5.30764 1.25988 5.29265 1.46368 5.26268C1.66747 5.23271 1.88925 5.17577 2.12901 5.09186C2.90823 4.82812 3.57656 4.36658 4.13401 3.70724C4.69145 3.0479 5.0361 2.31663 5.16797 1.51343C5.20394 1.26169 5.21592 1.00394 5.20394 0.740207V0.236711H6.55259V0.794153Z" fill="#BFBFBF"/>
</svg>
