<svg width="16" height="12" viewBox="0 0 16 12" fill="none" xmlns="http://www.w3.org/2000/svg">
<path d="M9.44741 0.794153C9.44741 1.20175 9.47439 1.56438 9.52833 1.88206C9.58228 2.19975 9.68118 2.53841 9.82504 2.89805C10.1607 3.72522 10.6522 4.4505 11.2996 5.07387C11.4554 5.22972 11.5333 5.31363 11.5333 5.32562C11.5333 5.33761 9.62723 5.3436 5.81505 5.3436H0.114746L0.132728 6.67427L11.5333 6.71024L11.2996 6.92602C10.6522 7.5494 10.1607 8.27467 9.82504 9.10185C9.68118 9.46149 9.58228 9.80015 9.52833 10.1178C9.47439 10.4355 9.44741 10.7981 9.44741 11.2057V11.7632H10.7961V11.2597C10.7961 10.8641 10.826 10.5224 10.886 10.2347C10.9459 9.947 11.0478 9.6473 11.1917 9.33561C11.3235 9.07188 11.4614 8.83811 11.6053 8.63431C11.7491 8.43052 11.9229 8.22672 12.1267 8.02292C12.4504 7.69925 12.7801 7.43851 13.1157 7.24071C13.4514 7.0429 13.829 6.89006 14.2486 6.78217C14.3805 6.75819 14.5004 6.74021 14.6083 6.72822C14.7161 6.71623 14.9199 6.70424 15.2196 6.69225L15.885 6.67427V5.30764H15.3096C14.9979 5.30764 14.7401 5.29265 14.5363 5.26268C14.3325 5.23271 14.1107 5.17577 13.871 5.09186C13.0918 4.82812 12.4234 4.36658 11.866 3.70724C11.3086 3.0479 10.9639 2.31663 10.832 1.51343C10.7961 1.26169 10.7841 1.00394 10.7961 0.740207V0.236711H9.44741V0.794153Z" fill="#BFBFBF"/>
</svg>
