<svg width="36" height="36" viewBox="0 0 36 36" fill="none" xmlns="http://www.w3.org/2000/svg">
<g clip-path="url(#clip0_757_2051)">
<path d="M28.556 22.5679C27.8385 21.8208 26.973 21.4213 26.0558 21.4213C25.146 21.4213 24.2731 21.8134 23.526 22.5605L21.1885 24.8905C20.9962 24.787 20.8039 24.6908 20.619 24.5946C20.3527 24.4615 20.1012 24.3358 19.8867 24.2026C17.6971 22.812 15.7073 20.9997 13.7989 18.6548C12.8743 17.4861 12.2529 16.5023 11.8017 15.5037C12.4083 14.9489 12.9704 14.3719 13.5178 13.8172C13.7249 13.61 13.932 13.3955 14.1392 13.1884C15.6925 11.635 15.6925 9.62304 14.1392 8.06966L12.1198 6.05027C11.8905 5.82096 11.6538 5.58426 11.4318 5.34755C10.988 4.88893 10.522 4.41552 10.0412 3.9717C9.32368 3.26158 8.46563 2.88434 7.56319 2.88434C6.66075 2.88434 5.7879 3.26158 5.0482 3.9717L5.0334 3.98649L2.51841 6.52368C1.57159 7.4705 1.0316 8.62444 0.91325 9.9633C0.735721 12.1232 1.37187 14.1352 1.86007 15.4519C3.05839 18.6844 4.84848 21.6802 7.51881 24.8905C10.7587 28.7592 14.657 31.8142 19.11 33.9667C20.8113 34.773 23.0822 35.7272 25.6194 35.8899C25.7747 35.8973 25.9374 35.9047 26.0854 35.9047C27.7941 35.9047 29.2291 35.2908 30.3535 34.0703C30.3609 34.0555 30.3757 34.0481 30.3831 34.0333C30.7677 33.5673 31.2115 33.1456 31.6775 32.6944C31.9956 32.3911 32.3211 32.0731 32.6392 31.7402C33.3715 30.9783 33.7561 30.0906 33.7561 29.1808C33.7561 28.2636 33.3641 27.3833 32.617 26.6436L28.556 22.5679ZM31.2041 30.3569C31.1967 30.3643 31.1967 30.3569 31.2041 30.3569C30.9156 30.6676 30.6198 30.9487 30.3017 31.2594C29.8209 31.718 29.3327 32.1988 28.8741 32.7388C28.127 33.5377 27.2467 33.9149 26.0928 33.9149C25.9818 33.9149 25.8635 33.9149 25.7525 33.9075C23.5556 33.767 21.514 32.9089 19.9828 32.1766C15.7961 30.1498 12.1198 27.2724 9.06479 23.6256C6.5424 20.5855 4.85587 17.7746 3.73892 14.7566C3.05099 12.9147 2.7995 11.4797 2.91045 10.126C2.98442 9.26058 3.31729 8.54307 3.93124 7.92912L6.45363 5.40673C6.81609 5.06646 7.20073 4.88154 7.57798 4.88154C8.044 4.88154 8.42125 5.16262 8.65795 5.39933L8.68014 5.42152C9.13136 5.84315 9.56039 6.27958 10.0116 6.74559C10.2409 6.9823 10.4776 7.219 10.7143 7.4631L12.7337 9.4825C13.5178 10.2666 13.5178 10.9915 12.7337 11.7756C12.5192 11.9901 12.3121 12.2046 12.0976 12.4117C11.4762 13.0479 10.8845 13.6396 10.2409 14.2166C10.2261 14.2314 10.2113 14.2388 10.2039 14.2536C9.56779 14.8897 9.68614 15.5111 9.81929 15.9327L9.84148 15.9993C10.3667 17.2716 11.1064 18.4699 12.2307 19.8975L12.2381 19.9049C14.2797 22.4199 16.4322 24.3801 18.8067 25.8817C19.11 26.0741 19.4206 26.2294 19.7165 26.3773C19.9828 26.5105 20.2343 26.6362 20.4488 26.7694C20.4784 26.7842 20.508 26.8064 20.5376 26.8212C20.7891 26.9469 21.0258 27.0061 21.2699 27.0061C21.8839 27.0061 22.2685 26.6214 22.3943 26.4957L24.924 23.9659C25.1755 23.7144 25.575 23.4111 26.041 23.4111C26.4996 23.4111 26.8769 23.6996 27.1062 23.9511L27.121 23.9659L31.1967 28.0417C31.9586 28.7962 31.9586 29.5729 31.2041 30.3569ZM19.7979 9.19401C21.7359 9.51948 23.4964 10.4367 24.9019 11.8422C26.3073 13.2476 27.2171 15.0081 27.55 16.9461C27.6314 17.4343 28.053 17.7746 28.5338 17.7746C28.593 17.7746 28.6448 17.7672 28.7039 17.7598C29.2513 17.671 29.6138 17.1532 29.525 16.6058C29.1256 14.261 28.016 12.1232 26.3221 10.4293C24.6282 8.7354 22.4904 7.62584 20.1456 7.2264C19.5982 7.13763 19.0878 7.50009 18.9916 8.04007C18.8955 8.58006 19.2505 9.10525 19.7979 9.19401ZM35.8643 16.3174C35.2059 12.4561 33.3863 8.94251 30.5902 6.14643C27.7941 3.35035 24.2805 1.53068 20.4192 0.872341C19.8793 0.776179 19.3689 1.14603 19.2727 1.68602C19.1839 2.2334 19.5464 2.74379 20.0938 2.83995C23.5408 3.42432 26.6845 5.05907 29.1847 7.55187C31.6849 10.0521 33.3123 13.1958 33.8967 16.6428C33.978 17.131 34.3996 17.4713 34.8805 17.4713C34.9396 17.4713 34.9914 17.4639 35.0506 17.4565C35.5906 17.3751 35.9604 16.8573 35.8643 16.3174Z" fill="#02BA43"/>
</g>
<defs>
<clipPath id="clip0_757_2051">
<rect width="35.0476" height="35.0476" fill="white" transform="translate(0.857422 0.857117)"/>
</clipPath>
</defs>
</svg>
