<svg width="36" height="25" viewBox="0 0 36 25" fill="none" xmlns="http://www.w3.org/2000/svg">
<g clip-path="url(#clip0_757_2058)">
<g clip-path="url(#clip1_757_2058)">
<path d="M32.8237 0.190491H3.9368C2.24178 0.190491 0.856445 1.55508 0.856445 3.23811V21.5238C0.856445 23.2075 2.24267 24.5714 3.9368 24.5714H32.8237C34.5187 24.5714 35.9041 23.2069 35.9041 21.5238V3.23811C35.9041 1.55467 34.518 0.190491 32.8237 0.190491ZM32.3507 2.22224L19.1759 15.2995C18.7745 15.6979 17.9862 15.6981 17.5846 15.2995L4.40981 2.22224H32.3507ZM2.91002 21.1503V3.61161L11.7448 12.381L2.91002 21.1503ZM4.40981 22.5397L13.1946 13.82L16.1302 16.7338C17.3331 17.9279 19.4279 17.9274 20.6304 16.7338L23.566 13.8201L32.3507 22.5397H4.40981ZM33.8505 21.1503L25.0157 12.381L33.8505 3.61161V21.1503Z" fill="#02BA43"/>
</g>
</g>
<rect x="1.35645" y="0.690491" width="34.0476" height="23.381" stroke="#02BA43"/>
<defs>
<clipPath id="clip0_757_2058">
<rect x="0.856445" y="0.190491" width="35.0476" height="24.381" fill="white"/>
</clipPath>
<clipPath id="clip1_757_2058">
<rect width="35.0476" height="24.381" fill="white" transform="translate(0.856445 0.190491)"/>
</clipPath>
</defs>
</svg>
