<svg width="16" height="12" viewBox="0 0 16 12" fill="none" xmlns="http://www.w3.org/2000/svg">
<path d="M9.44754 0.794153C9.44754 1.20175 9.47451 1.56438 9.52845 1.88206C9.5824 2.19975 9.6813 2.53841 9.82516 2.89805C10.1608 3.72522 10.6523 4.4505 11.2997 5.07387C11.4555 5.22972 11.5334 5.31363 11.5334 5.32562C11.5334 5.33761 9.62736 5.3436 5.81517 5.3436H0.114868L0.13285 6.67427L11.5334 6.71024L11.2997 6.92602C10.6523 7.5494 10.1608 8.27467 9.82516 9.10185C9.6813 9.46149 9.5824 9.80015 9.52845 10.1178C9.47451 10.4355 9.44754 10.7981 9.44754 11.2057V11.7632H10.7962V11.2597C10.7962 10.8641 10.8262 10.5224 10.8861 10.2347C10.946 9.947 11.0479 9.6473 11.1918 9.33561C11.3237 9.07188 11.4615 8.83811 11.6054 8.63431C11.7492 8.43052 11.9231 8.22672 12.1269 8.02292C12.4505 7.69925 12.7802 7.43851 13.1159 7.24071C13.4515 7.0429 13.8292 6.89006 14.2487 6.78217C14.3806 6.75819 14.5005 6.74021 14.6084 6.72822C14.7163 6.71623 14.9201 6.70424 15.2198 6.69225L15.8851 6.67427V5.30764H15.3097C14.998 5.30764 14.7402 5.29265 14.5364 5.26268C14.3327 5.23271 14.1109 5.17577 13.8711 5.09186C13.0919 4.82812 12.4236 4.36658 11.8661 3.70724C11.3087 3.0479 10.964 2.31663 10.8322 1.51343C10.7962 1.26169 10.7842 1.00394 10.7962 0.740207V0.236711H9.44754V0.794153Z" fill="#107634"/>
</svg>
