<svg width="84" height="84" viewBox="0 0 84 84" fill="none" xmlns="http://www.w3.org/2000/svg">
<path d="M39.8182 0.33564C37.5245 0.33564 35.6084 0.587395 34.0699 1.09089C32.5315 1.59438 31.2867 2.3776 30.3357 3.44054C29.2168 4.67131 28.6014 6.34963 28.4895 8.4755C28.3776 9.70627 28.4895 11.7482 28.8252 14.6014C29.2168 17.6224 29.3846 19.9161 29.3287 21.4825C29.2727 24.1119 28.7133 26.4615 27.6503 28.5314C26.4196 31.0489 24.4336 33.3147 21.6923 35.3286C14.0839 40.7552 8.75523 46.0279 5.70628 51.1468C2.65733 56.2657 1.86013 61.1189 3.31467 65.7063C4.60139 69.5664 7.39859 72.951 11.7063 75.8601C15.5105 78.3776 20.1259 80.3356 25.5524 81.7342C30.4755 83.021 35.2308 83.6643 39.8182 83.6643C45.4685 83.6643 50.8671 82.5734 56.014 80.3916C60.993 78.2657 65.3986 75.2867 69.2308 71.4545C73.0629 67.6224 76.0419 63.2168 78.1678 58.2377C80.3496 53.0349 81.4405 47.6224 81.4405 42C81.4405 36.3776 80.3496 30.965 78.1678 25.7622C76.0419 20.7832 73.0629 16.3776 69.2308 12.5454C65.3986 8.71326 60.993 5.73425 56.014 3.60837C50.8671 1.42655 45.4685 0.33564 39.8182 0.33564Z" fill="#F3F3ED"/>
<path d="M79.2288 46.1601L67.2396 27.3661C66.826 26.7195 66.1728 26.2633 65.4233 26.0976C64.6738 25.9319 63.8892 26.0702 63.2415 26.4822L57.3556 30.2371C56.8102 30.586 56.3974 31.1076 56.1832 31.7187C55.969 32.3297 55.9657 32.9948 56.1738 33.608C55.9063 33.6119 55.629 33.6062 55.3417 33.5908C54.038 33.5195 53.2265 33.1221 52.3681 32.7018C50.1919 31.636 48.3691 31.1215 43.7292 33.6329C42.0104 31.3924 39.1611 32.0982 36.6162 32.7304C34.6507 33.2185 32.6289 33.7208 30.7688 33.2511C31.0222 32.6243 31.0484 31.9286 30.8431 31.2845C30.6377 30.6403 30.2137 30.0882 29.6443 29.7236L23.7584 25.969C23.1108 25.5568 22.3261 25.4185 21.5766 25.5842C20.827 25.7499 20.1738 26.2061 19.7603 26.8528L7.77109 45.6469C7.35963 46.2946 7.2216 47.079 7.38724 47.8283C7.55287 48.5775 8.00868 49.2306 8.65483 49.6445L14.5409 53.3992C15.0028 53.6955 15.54 53.8531 16.0888 53.8533C16.3019 53.8532 16.5144 53.8298 16.7225 53.7836C17.0941 53.7029 17.446 53.5492 17.7578 53.3316C18.0696 53.1139 18.3351 52.8366 18.539 52.5156L19.3141 51.3005C19.3761 51.362 19.4379 51.4204 19.4995 51.4755C18.2617 52.8548 17.1301 54.438 17.3091 56.5162C17.4363 57.9944 17.9707 59.0886 18.8972 59.7682C19.7295 60.3787 20.8454 60.616 22.2235 60.4789C22.41 61.6849 22.8805 62.6492 23.6289 63.3547C24.4945 64.1708 25.7056 64.6118 27.238 64.6709C27.527 65.7232 28.0674 66.528 28.8512 67.0703C29.8822 67.7837 31.2436 67.9991 32.9939 67.7232C33.7511 69.5815 35.2563 70.5521 37.4008 70.5519C37.477 70.5519 37.5539 70.5507 37.6316 70.5483C38.7862 70.5118 39.9348 69.6534 40.7884 68.8134C43.207 70.4804 45.3061 71.3198 47.0557 71.3196C47.5803 71.3237 48.1018 71.2399 48.5988 71.0719C49.8962 70.6246 50.8776 69.6156 51.5261 68.0667C53.0075 68.5404 54.2999 68.5101 55.3794 67.9735C56.5482 67.3928 57.4135 66.2412 57.959 64.544C59.3831 64.6922 60.5478 64.4297 61.4317 63.76C62.2703 63.1246 62.8211 62.1497 63.0766 60.8536C65.0862 61.0733 66.7794 60.5706 68.1194 59.3533C68.181 59.2974 68.2355 59.2342 68.2819 59.1651C69.2633 57.7003 69.6165 56.2716 69.3314 54.9201C69.117 53.9939 68.6527 53.1443 67.9891 52.4636C68.0137 52.4437 68.0377 52.4233 68.0614 52.4028L68.4607 53.0287C68.6647 53.3496 68.9302 53.6269 69.242 53.8445C69.5538 54.0621 69.9056 54.2157 70.2771 54.2964C70.4852 54.3426 70.6976 54.366 70.9107 54.3661C71.4595 54.3659 71.9967 54.2083 72.4586 53.912L78.3446 50.1572C78.9911 49.7437 79.4472 49.0907 79.6129 48.3414C79.7787 47.5921 79.6405 46.8077 79.2288 46.1601ZM16.8105 51.4131C16.6898 51.6018 16.4992 51.7348 16.2806 51.7831C16.0619 51.8315 15.833 51.7911 15.644 51.671L9.75771 47.916C9.56908 47.7953 9.43601 47.6048 9.3877 47.3861C9.3394 47.1674 9.3798 46.9386 9.50005 46.7497L21.4891 27.9557C21.5487 27.8623 21.6263 27.7817 21.7173 27.7185C21.8084 27.6552 21.911 27.6106 22.0193 27.5873C22.0808 27.5738 22.1435 27.5669 22.2064 27.5668C22.3655 27.5666 22.5214 27.6121 22.6555 27.6978L28.5414 31.4526C28.7301 31.5733 28.8632 31.7639 28.9115 31.9826C28.9599 32.2013 28.9196 32.4302 28.7994 32.6192L16.8105 51.4131ZM20.1106 58.1154C19.682 57.8009 19.427 57.2038 19.3526 56.3407C19.2164 54.7568 20.4448 53.4512 21.7454 52.0688C22.0029 51.7952 22.2692 51.5122 22.5193 51.2314C22.7656 50.9472 23.0857 50.7367 23.4441 50.6232C23.8026 50.5096 24.1855 50.4974 24.5504 50.5879C24.9702 50.6914 25.3574 50.8984 25.6765 51.1902C25.9956 51.4819 26.2364 51.8489 26.3771 52.2578C26.0236 53.3472 25.0854 55.3971 22.6054 58.3543C21.4702 58.5636 20.6112 58.4826 20.1104 58.1154H20.1106ZM24.1976 59.6472C26.9871 56.3136 28.0092 53.9399 28.3806 52.7224C29.3843 51.6752 31.1184 51.2188 32.3573 51.7073C33.233 52.0525 33.6771 52.8132 33.6817 53.9687L27.5384 62.6278C26.4082 62.6208 25.5669 62.3642 25.0362 61.8633C24.5387 61.3946 24.2585 60.649 24.1973 59.6472H24.1976ZM30.0186 65.3847C29.5886 65.0872 29.3065 64.5937 29.1591 63.8878L35.2968 55.237C36.7127 54.9995 37.7833 55.2153 38.3332 55.8588C38.9118 56.536 38.9337 57.7534 38.4008 59.2133C36.8768 61.0628 35.6705 62.5276 34.7819 63.6078C34.0045 64.5524 33.4196 65.2631 33.1286 65.6147C31.7238 65.9018 30.6533 65.8235 30.0183 65.3847H30.0186ZM37.5673 68.4992C36.1123 68.5461 35.2688 68.0233 34.8281 66.7763C35.1008 66.446 35.5667 65.8801 36.3644 64.9109C37.1927 63.9046 38.2967 62.5639 39.6764 60.8889C40.968 61.2742 41.7145 61.8245 41.8977 62.5288C42.0489 63.1096 41.5688 64.5831 40.3817 66.1695C39.2666 67.6603 38.0992 68.4824 37.5673 68.4992ZM66.6489 57.9172C65.6258 58.7924 64.298 59.0491 62.6017 58.7041L51.2919 51.0607L50.1436 52.7599L61.1132 60.1735C60.9783 61.1087 60.6704 61.7649 60.1935 62.1264C59.6421 62.5441 58.7686 62.6391 57.6021 62.4176L48.8815 56.7276L47.7609 58.4451L56.0308 63.841C55.6646 65.0311 55.1402 65.8039 54.4672 66.1378C53.7348 66.5021 52.7071 66.3981 51.4133 65.8328L46.2666 62.1743L45.0783 63.8457L49.6935 67.127C49.2747 68.1997 48.6839 68.875 47.9305 69.1338C46.6186 69.5864 44.6229 68.933 42.1338 67.2488C42.7921 66.3393 44.3727 63.8957 43.8829 62.0125C43.5297 60.6548 42.4284 59.6557 40.604 59.0338C41.0752 57.2028 40.8331 55.6281 39.8917 54.5267C38.972 53.4504 37.4975 52.9669 35.6693 53.1236C35.4322 51.5435 34.5369 50.3623 33.1092 49.7993C31.4305 49.1375 29.3528 49.4699 27.7899 50.5452C27.148 49.5601 26.1518 48.8596 25.0076 48.5888C24.2845 48.4163 23.528 48.4443 22.8195 48.6697C22.1111 48.8951 21.4775 49.3095 20.9871 49.8682C20.957 49.9019 20.9248 49.9361 20.8943 49.9698C20.7361 49.8288 20.5899 49.6747 20.4574 49.5093L29.6718 35.0642C32.2086 35.9375 34.7988 35.2949 37.1102 34.721C39.8178 34.0484 41.1628 33.8375 42 34.7618C36.9921 38.6656 33.8334 43.4076 34.2461 46.5021C34.3967 47.6315 35.027 48.465 36.0208 48.8489C36.4456 49.0062 36.8958 49.0834 37.3488 49.0766C39.9307 49.0766 43.8051 46.9883 48.4873 43.0385C48.4945 43.0322 49.2571 42.4549 53.2696 44.7499C55.9053 46.2573 58.9459 48.4235 61.3889 50.1639C62.8527 51.207 64.117 52.1076 64.9889 52.6503C66.3426 53.5079 67.1285 54.4142 67.3248 55.3443C67.4879 56.1166 67.2667 56.9593 66.6487 57.9172H66.6489ZM66.3546 51.0947C66.2639 51.0334 66.1723 50.9732 66.0799 50.9144C65.2554 50.4017 64.0145 49.5175 62.579 48.4943C55.0434 43.1256 49.5272 39.4796 47.165 41.4715C41.4726 46.2737 38.0024 47.4162 36.7601 46.9366C36.5582 46.8587 36.3433 46.7139 36.279 46.2317C36.0407 44.4446 38.2586 40.0536 43.9324 35.8688C48.636 33.1588 49.8238 33.74 51.4659 34.5444C52.3765 34.9905 53.5095 35.5454 55.2297 35.6393C55.9313 35.6814 56.6351 35.6642 57.3338 35.5877L66.9298 50.63C66.7788 50.8295 66.5813 50.989 66.3546 51.0947ZM77.2422 48.4301L71.3562 52.1848C71.1673 52.3051 70.9384 52.3456 70.7197 52.2973C70.501 52.249 70.3105 52.1159 70.1898 51.9272L58.2007 33.1332C58.0818 32.9439 58.0421 32.7154 58.0904 32.4971C58.1386 32.2788 58.2709 32.0883 58.4585 31.9668L64.3447 28.2115C64.5336 28.0913 64.7625 28.0509 64.9812 28.0992C65.1999 28.1476 65.3904 28.2807 65.5111 28.4693L77.5001 47.2632C77.6203 47.4522 77.6606 47.6811 77.6122 47.8997C77.5639 48.1183 77.4308 48.3089 77.2422 48.4296V48.4301ZM53.5186 18.0376C53.6978 17.833 53.9509 17.7081 54.2222 17.6901C54.4935 17.6722 54.7609 17.7628 54.9654 17.9419L58.8443 21.339C58.9521 21.4334 59.0389 21.5493 59.0991 21.6793C59.1593 21.8093 59.1916 21.9504 59.1939 22.0936C59.1963 22.2369 59.1686 22.379 59.1126 22.5109C59.0567 22.6427 58.9737 22.7614 58.8691 22.8592L55.3212 26.1777C55.1221 26.3604 54.8589 26.4571 54.5888 26.4468C54.3187 26.4365 54.0636 26.3199 53.879 26.1225C53.6944 25.9251 53.5952 25.6628 53.603 25.3927C53.6108 25.1225 53.7249 24.8664 53.9206 24.6799L55.5294 23.1748L37.1132 23.537H37.0927C36.8208 23.5396 36.5589 23.4341 36.3648 23.2437C36.1706 23.0532 36.0601 22.7935 36.0574 22.5215C36.0548 22.2496 36.1603 21.9877 36.3508 21.7936C36.5412 21.5994 36.801 21.4889 37.073 21.4862L55.4871 21.1241L53.6143 19.4835C53.41 19.3043 53.2852 19.0514 53.2673 18.7803C53.2493 18.5092 53.3397 18.2421 53.5186 18.0376ZM24.0511 16.848C23.9465 16.7501 23.8635 16.6314 23.8075 16.4996C23.7516 16.3677 23.7239 16.2256 23.7262 16.0824C23.7286 15.9391 23.7609 15.798 23.8211 15.668C23.8813 15.538 23.9681 15.4221 24.0758 15.3277L27.9549 11.9308C28.0557 11.839 28.1738 11.7683 28.3023 11.7228C28.4307 11.6772 28.567 11.6577 28.7031 11.6655C28.8391 11.6732 28.9723 11.708 29.0948 11.7678C29.2173 11.8276 29.3266 11.9112 29.4164 12.0137C29.5062 12.1163 29.5746 12.2357 29.6177 12.365C29.6608 12.4943 29.6777 12.6309 29.6674 12.7668C29.6571 12.9027 29.6198 13.0352 29.5577 13.1565C29.4955 13.2779 29.4099 13.3856 29.3056 13.4734L27.433 15.114L45.8471 15.4755C46.119 15.4781 46.3788 15.5887 46.5693 15.7828C46.7597 15.977 46.8652 16.2388 46.8626 16.5107C46.86 16.7827 46.7495 17.0425 46.5554 17.2329C46.3612 17.4234 46.0994 17.5289 45.8274 17.5263H45.8068L27.3905 17.1635L28.999 18.6679C29.0989 18.7595 29.1796 18.8699 29.2365 18.9929C29.2934 19.1159 29.3254 19.2489 29.3306 19.3843C29.3358 19.5197 29.3141 19.6548 29.2667 19.7818C29.2194 19.9087 29.1474 20.0251 29.0548 20.124C28.9623 20.223 28.851 20.3026 28.7275 20.3583C28.6039 20.414 28.4706 20.4447 28.3352 20.4486C28.1997 20.4524 28.0648 20.4294 27.9383 20.3808C27.8119 20.3322 27.6962 20.2591 27.5982 20.1655L24.0511 16.848Z" fill="#585C59"/>
</svg>
