<svg width="40" height="40" viewBox="0 0 40 40" fill="none" xmlns="http://www.w3.org/2000/svg">
<path d="M17.1172 1.61736C7.16643 5.94578 4.0321 12.3483 7.71418 20.827C2.85604 15.0891 1.24216 7.22517 3.43857 0C-0.567721 5.87522 -1.11362 13.4922 2.01338 19.8948C5.14038 26.2955 11.4457 30.4735 18.4855 30.8078C14.4665 29.2257 11.3394 25.9278 9.93991 21.7944C8.54032 17.6591 9.01296 13.1097 11.2295 9.36063C9.56431 13.1468 9.41598 17.2004 10.7825 21.5233C17.1977 17.466 19.4473 13.1283 17.5275 8.51016C15.9814 5.35714 15.8458 3.06016 17.1172 1.61736Z" fill="#02BA43"/>
<path d="M22.1961 10.2524C32.1468 14.5809 35.2811 20.9834 31.5991 29.4621C36.4572 23.7242 38.0711 15.8602 35.8747 8.63507C39.881 14.5103 40.4269 22.1273 37.2998 28.5299C34.1728 34.9306 27.8675 39.1086 20.8277 39.4429C24.8468 37.8608 27.9738 34.5629 29.3733 30.4294C30.7729 26.2941 30.3003 21.7448 28.0837 17.9957C29.7489 21.7819 29.8973 25.8355 28.5307 30.1583C22.1155 26.1011 19.8659 21.7633 21.7857 17.1452C23.3318 13.9922 23.4674 11.6952 22.1961 10.2524Z" fill="#02BA43"/>
</svg>
