<svg width="55" height="40" viewBox="0 0 55 40" fill="none" xmlns="http://www.w3.org/2000/svg">
<g clip-path="url(#clip0_16_5994)">
<path d="M12.8334 28.8599C9.8001 28.8599 7.33337 31.3695 7.33337 34.4555C7.33337 37.5415 9.8001 40.0511 12.8334 40.0511C15.8666 40.0511 18.3334 37.5415 18.3334 34.4555C18.3334 31.3695 15.8665 28.8599 12.8334 28.8599ZM12.8334 38.1859C10.8112 38.1859 9.16674 36.5128 9.16674 34.4555C9.16674 32.3981 10.8113 30.7251 12.8334 30.7251C14.8555 30.7251 16.5 32.3982 16.5 34.4555C16.5 36.5128 14.8555 38.1859 12.8334 38.1859ZM44 28.8599C40.9667 28.8599 38.5 31.3695 38.5 34.4555C38.5 37.5415 40.9667 40.0511 44 40.0511C47.0333 40.0511 49.5 37.5415 49.5 34.4555C49.5 31.3695 47.0333 28.8599 44 28.8599ZM44 38.1859C41.9778 38.1859 40.3334 36.5128 40.3334 34.4555C40.3334 32.3981 41.9779 30.7251 44 30.7251C46.0222 30.7251 47.6666 32.3982 47.6666 34.4555C47.6666 36.5128 46.0222 38.1859 44 38.1859Z" fill="white"/>
<path d="M54.8542 23.6924L46.6042 10.6359C46.5212 10.5046 46.4071 10.3966 46.2724 10.3218C46.1377 10.247 45.9867 10.2078 45.8333 10.2078H35.75C35.6296 10.2077 35.5104 10.2318 35.3992 10.2787C35.2879 10.3255 35.1869 10.3942 35.1018 10.4808C35.0166 10.5674 34.9491 10.6702 34.9031 10.7834C34.857 10.8966 34.8333 11.0179 34.8334 11.1403V34.4554C34.8333 34.5779 34.8569 34.6992 34.9029 34.8124C34.9489 34.9256 35.0165 35.0285 35.1016 35.1151C35.1867 35.2017 35.2878 35.2704 35.3991 35.3172C35.5104 35.3641 35.6296 35.3881 35.75 35.388H39.4166V33.5227H36.6666V12.073H45.3328L53.1666 24.471V33.523H48.5833V35.3881H54.0833C54.2037 35.3882 54.3229 35.3642 54.4342 35.3173C54.5454 35.2705 54.6465 35.2018 54.7317 35.1152C54.8168 35.0286 54.8843 34.9257 54.9304 34.8125C54.9764 34.6993 55 34.578 54.9999 34.4555V24.1968C55 24.0179 54.9495 23.8428 54.8542 23.6924Z" fill="white"/>
<path d="M40.3334 22.3315V15.8033H47.6667V13.938H39.4167C39.2964 13.938 39.1771 13.9621 39.0659 14.0089C38.9547 14.0558 38.8536 14.1245 38.7685 14.2111C38.6834 14.2977 38.6158 14.4005 38.5698 14.5137C38.5237 14.6268 38.5001 14.7481 38.5001 14.8706V23.264C38.5 23.3865 38.5236 23.5079 38.5697 23.621C38.6157 23.7342 38.6832 23.8371 38.7683 23.9237C38.8535 24.0103 38.9546 24.079 39.0658 24.1259C39.1771 24.1727 39.2963 24.1967 39.4167 24.1966H53.1667V22.3314H40.3334V22.3315ZM35.75 3.67944H0.916631C0.673552 3.67953 0.440452 3.77781 0.268569 3.95268C0.0966862 4.12755 8.54726e-05 4.36471 5.66955e-08 4.61201V34.4554C-4.22904e-05 34.5779 0.0236382 34.6992 0.0696882 34.8123C0.115738 34.9255 0.183255 35.0283 0.268381 35.1149C0.353506 35.2015 0.454571 35.2702 0.565801 35.3171C0.677031 35.3639 0.796245 35.388 0.916631 35.388H8.25V33.5227H1.83337V5.54458H34.8334V33.5227H17.4166V35.388H35.75C35.8704 35.3881 35.9897 35.364 36.1009 35.3172C36.2122 35.2704 36.3133 35.2017 36.3984 35.1151C36.4835 35.0285 36.5511 34.9256 36.5971 34.8124C36.6431 34.6992 36.6667 34.5779 36.6666 34.4554V4.61201C36.6667 4.48953 36.643 4.36825 36.5969 4.25508C36.5509 4.14192 36.4834 4.0391 36.3983 3.95249C36.3131 3.86589 36.2121 3.79719 36.1008 3.75034C35.9896 3.70349 35.8704 3.6794 35.75 3.67944Z" fill="white"/>
<path d="M0.916631 29.7924H6.41663V31.6576H0.916631V29.7924ZM19.25 29.7924H34.8334V31.6576H19.25V29.7924ZM50.4166 29.7924H54.0833V31.6576H50.4166V29.7924ZM3.66663 7.40985H35.75V9.27509H3.66663V7.40985ZM11.9166 33.5227H13.75V35.388H11.9166V33.5227ZM43.0834 33.5227H44.9167V35.388H43.0834V33.5227ZM3.66663 -0.0510254H16.5V1.81422H3.66663V-0.0510254ZM0 -0.0510254H1.83337V1.81422H0V-0.0510254Z" fill="white"/>
</g>
<defs>
<clipPath id="clip0_16_5994">
<rect width="55" height="40" fill="white"/>
</clipPath>
</defs>
</svg>
