<svg width="14" height="14" viewBox="0 0 14 14" fill="none" xmlns="http://www.w3.org/2000/svg">
<g clip-path="url(#clip0_8_1337)">
<path d="M5.9792 6.5625H0.4375C0.196 6.5625 0 6.3665 0 6.125C0 5.8835 0.196 5.6875 0.4375 5.6875H5.9792C6.2207 5.6875 6.4167 5.8835 6.4167 6.125C6.4167 6.3665 6.2207 6.5625 5.9792 6.5625Z" fill="#EECD15"/>
<path d="M3.79165 8.75C3.73419 8.75013 3.67727 8.73886 3.62419 8.71684C3.57111 8.69483 3.52292 8.6625 3.48242 8.62173C3.31152 8.45072 3.31152 8.17365 3.48242 8.00275L5.36083 6.12445L3.48242 4.24673C3.31152 4.07572 3.31152 3.79865 3.48242 3.62775C3.65332 3.45685 3.93039 3.45685 4.1014 3.62775L6.2889 5.81525C6.4598 5.98615 6.4598 6.26322 6.2889 6.43423L4.1014 8.62173C4.06076 8.66245 4.01248 8.69475 3.95932 8.71676C3.90617 8.73878 3.84919 8.75007 3.79165 8.75ZM9.33325 14C8.68982 14 8.16665 13.4767 8.16665 12.8333V2.3333C8.16665 1.8346 8.48398 1.3895 8.95642 1.22555L12.4611 0.0571477C13.2451 -0.183204 13.9999 0.398398 13.9999 1.1667V11.6667C13.9999 12.1649 13.6826 12.6093 13.2107 12.7738L9.70485 13.9429C9.5771 13.9825 9.45875 14 9.33325 14ZM12.8332 0.874999C12.7953 0.874999 12.7633 0.879702 12.7289 0.890175L9.23883 2.05387C9.12442 2.0936 9.04165 2.20907 9.04165 2.3333V12.8333C9.04165 13.0323 9.25739 13.1665 9.4377 13.1098L12.9278 11.9461C13.0415 11.9064 13.1249 11.7909 13.1249 11.6667V1.1667C13.1249 1.00628 12.9943 0.874999 12.8332 0.874999Z" fill="#EECD15"/>
<path d="M5.10425 2.9167C4.86275 2.9167 4.66675 2.7207 4.66675 2.4792V1.6042C4.66675 0.719277 5.38589 0 6.27084 0H12.8333C13.0748 0 13.2708 0.196 13.2708 0.4375C13.2708 0.679 13.0748 0.875 12.8333 0.875H6.27084C5.86889 0.875 5.54175 1.20228 5.54175 1.6042V2.4792C5.54175 2.7207 5.34575 2.9167 5.10425 2.9167ZM8.60425 12.25H6.27084C5.38592 12.25 4.66675 11.5307 4.66675 10.6458V9.7708C4.66675 9.5293 4.86275 9.3333 5.10425 9.3333C5.34575 9.3333 5.54175 9.5293 5.54175 9.7708V10.6458C5.54175 11.0478 5.86892 11.375 6.27084 11.375H8.60425C8.84575 11.375 9.04175 11.571 9.04175 11.8125C9.04175 12.054 8.84575 12.25 8.60425 12.25Z" fill="#EECD15"/>
</g>
<defs>
<clipPath id="clip0_8_1337">
<rect width="14" height="14" fill="white"/>
</clipPath>
</defs>
</svg>
