<svg width="18" height="18" viewBox="0 0 18 18" fill="none" xmlns="http://www.w3.org/2000/svg">
<path d="M10.4474 3.79415C10.4474 4.20175 10.4744 4.56438 10.5283 4.88206C10.5823 5.19975 10.6812 5.53841 10.825 5.89805C11.1607 6.72522 11.6522 7.4505 12.2996 8.07387C12.4554 8.22972 12.5333 8.31363 12.5333 8.32562C12.5333 8.33761 10.6272 8.3436 6.81505 8.3436H1.11475L1.13273 9.67427L12.5333 9.71024L12.2996 9.92602C11.6522 10.5494 11.1607 11.2747 10.825 12.1018C10.6812 12.4615 10.5823 12.8001 10.5283 13.1178C10.4744 13.4355 10.4474 13.7981 10.4474 14.2057V14.7632H11.7961V14.2597C11.7961 13.8641 11.826 13.5224 11.886 13.2347C11.9459 12.947 12.0478 12.6473 12.1917 12.3356C12.3235 12.0719 12.4614 11.8381 12.6053 11.6343C12.7491 11.4305 12.9229 11.2267 13.1267 11.0229C13.4504 10.6992 13.7801 10.4385 14.1157 10.2407C14.4514 10.0429 14.829 9.89006 15.2486 9.78217C15.3805 9.75819 15.5004 9.74021 15.6083 9.72822C15.7161 9.71623 15.9199 9.70424 16.2196 9.69225L16.885 9.67427V8.30764H16.3096C15.9979 8.30764 15.7401 8.29265 15.5363 8.26268C15.3325 8.23271 15.1107 8.17577 14.871 8.09186C14.0918 7.82812 13.4234 7.36658 12.866 6.70724C12.3086 6.0479 11.9639 5.31663 11.832 4.51343C11.7961 4.26169 11.7841 4.00394 11.7961 3.74021V3.23671H10.4474V3.79415Z" fill="#107634"/>
</svg>
