<svg xmlns="http://www.w3.org/2000/svg" version="1.1" xmlns:xlink="http://www.w3.org/1999/xlink" width="512" height="512" x="0" y="0" viewBox="0 0 512 512" style="enable-background:new 0 0 512 512" xml:space="preserve" class=""><g><path d="M492.522 118.3 266.433 3.743l-.093-.047c-10.068-5.012-22.029-4.9-32.002.3-.785.332-214.721 113.878-215.442 114.342C7.24 124.44 0 136.398 0 149.559V362.44c0 13.161 7.24 25.118 18.896 31.221l215.345 114.292.097.051a35.255 35.255 0 0 0 16.297 3.981 35.24 35.24 0 0 0 15.705-3.682l226.182-114.604C504.539 387.69 512 375.618 512 362.18V149.82c0-13.439-7.462-25.511-19.478-31.52zM248.237 30.57a5.26 5.26 0 0 1 4.705-.042l211.629 107.229-82.365 41.006L175.308 69.276l72.929-38.706zm-12.813 444.061L32.91 367.148l-.097-.051a5.237 5.237 0 0 1-2.824-4.656V163.092l205.435 107.124v204.415zm15.153-230.336L46.272 137.76l97.024-51.493 205.875 108.945-98.594 49.083zM482.01 362.181a5.222 5.222 0 0 1-2.912 4.7L265.414 475.152V270.409l98.386-48.981v51.355c0 8.281 6.714 14.995 14.995 14.995s14.995-6.714 14.995-14.995v-66.285l88.22-43.92v199.603z" fill="#000000" opacity="1" data-original="#000000" class=""></path><path d="M181.277 294.419c-4.19-7.144-13.378-9.536-20.521-5.346l-46.437 27.244-9.751-17.666c-4.002-7.25-13.125-9.884-20.374-5.882-7.25 4.002-9.884 13.124-5.882 20.374l17.189 31.143c.04.073.086.14.127.212.024.043.043.087.068.13.057.098.121.189.18.285.089.145.179.29.273.431.095.143.193.282.292.42.1.14.2.28.304.416.103.134.21.264.316.394.108.131.215.262.326.388.112.127.227.249.343.371.113.12.226.241.343.357.122.121.248.237.373.353.117.108.233.217.352.321.133.116.271.226.408.337.118.095.235.192.356.284.144.109.291.212.438.315.121.085.24.171.363.252.152.1.308.194.464.289.123.075.245.152.37.223.16.091.324.175.487.26.125.065.249.133.376.195.166.081.336.154.505.229.129.057.256.117.386.17.168.069.34.129.51.192.135.049.268.102.404.148.169.057.341.105.511.155.14.042.279.087.421.124.168.044.338.08.507.118.147.034.294.072.442.101.161.032.324.054.486.081.159.026.316.056.476.077.153.02.306.03.46.046.17.017.34.038.51.049.135.009.27.008.405.013.188.007.375.019.563.019.317 0 .634-.011.951-.031.081-.005.162-.016.243-.023.233-.019.466-.038.699-.068.12-.015.239-.038.358-.056.194-.03.387-.058.58-.095.138-.027.276-.061.414-.092.173-.039.346-.076.518-.121.149-.039.296-.084.444-.128.161-.047.321-.093.481-.146.152-.05.302-.107.453-.162.155-.057.31-.113.464-.176.151-.061.3-.128.45-.194.152-.068.305-.136.456-.209.146-.071.29-.146.434-.222.096-.05.194-.095.289-.148.04-.022.076-.05.117-.072.075-.042.151-.078.225-.122l59.715-35.033c7.137-4.193 9.531-13.381 5.34-20.524z" fill="#000000" opacity="1" data-original="#000000" class=""></path></g></svg>