<svg width="46" height="46" viewBox="0 0 46 46" fill="none" xmlns="http://www.w3.org/2000/svg">
<g clip-path="url(#clip0_16_5972)">
<path d="M39.8189 28.0493C39.4523 27.8346 38.983 27.9573 38.7697 28.323L29.9787 43.3166C29.3437 44.4156 27.935 44.7945 26.8697 44.1794L25.1572 43.0697C24.8014 42.8388 24.3267 42.9401 24.0966 43.2959C23.8657 43.651 23.9677 44.1265 24.3228 44.3565L26.069 45.4869C26.6497 45.8234 27.309 46.0004 27.9801 46C29.306 46 30.596 45.3137 31.3038 44.0881L40.0916 29.0983C40.3058 28.7333 40.1839 28.2632 39.8189 28.0493ZM42.1387 0H29.8684C27.4956 0 25.7279 0.755364 23.9579 2.52537C23.8866 2.59653 23.8301 2.68104 23.7915 2.77408C23.7529 2.86711 23.7331 2.96684 23.7331 3.06756C23.7331 3.16828 23.7529 3.26801 23.7915 3.36104C23.8301 3.45407 23.8866 3.53859 23.9579 3.60975C24.0291 3.68105 24.1136 3.73761 24.2066 3.77621C24.2996 3.8148 24.3994 3.83467 24.5001 3.83467C24.6008 3.83467 24.7006 3.8148 24.7936 3.77621C24.8866 3.73761 24.9712 3.68105 25.0423 3.60975C26.5362 2.11583 27.8898 1.53373 29.8684 1.53373H42.1387C43.4071 1.53373 44.4394 2.56599 44.4394 3.83443V16.1048C44.4394 18.0842 43.8573 19.437 42.3626 20.9309L19.5873 43.7385C18.7176 44.6066 17.2022 44.6074 16.3342 43.7385L2.23471 29.639C1.79992 29.2042 1.56059 28.6267 1.56059 28.0116C1.56059 27.3974 1.79983 26.8199 2.2339 26.3858L22.819 5.82992C23.1357 5.91044 23.4532 5.99097 23.7822 6.07913C26.902 6.91502 29.3637 7.77859 31.1989 8.54932C30.8377 9.21805 30.6352 9.9673 30.6352 10.7365C30.6352 13.2742 32.6989 15.3379 35.2366 15.3379C37.7743 15.3379 39.838 13.2742 39.838 10.7365C39.838 8.19882 37.7743 6.13512 35.2366 6.13512C34.8125 6.13512 34.4697 6.47869 34.4697 6.90199C34.4697 7.32528 34.8125 7.66885 35.2366 7.66885C36.9284 7.66885 38.3042 9.04469 38.3042 10.7364C38.3042 12.4282 36.9283 13.804 35.2366 13.804C33.5449 13.804 32.1691 12.4281 32.1691 10.7364C32.1696 10.1871 32.318 9.64806 32.5985 9.17581C33.9268 9.81155 34.7573 10.3476 35.0856 10.6897C34.9453 10.7296 34.7282 10.7741 34.4008 10.8024C33.979 10.8399 33.6669 11.2119 33.7045 11.6337C33.7398 12.0324 34.0741 12.3339 34.4676 12.3339C34.4898 12.3339 34.5128 12.3323 34.5358 12.3308C35.0074 12.2887 36.4423 12.1621 36.7184 11.1336C37.4738 8.31224 26.4052 5.19399 24.1788 4.59734C20.773 3.6847 17.5022 3.06046 14.9676 2.83965C11.8532 2.56743 10.3363 2.9217 10.051 3.98766C9.91453 4.4992 9.55028 5.85733 15.7683 8.30909C16.1617 8.46475 16.608 8.27153 16.763 7.87735C16.9179 7.48318 16.7246 7.0376 16.3304 6.88266C13.3265 5.69781 12.0818 4.82966 11.683 4.42092C12.6286 4.14331 15.8626 4.22384 21.0706 5.40788L1.15033 25.3007C0.425612 26.0254 0.0268555 26.9878 0.0268555 28.0116C0.0268555 29.0363 0.425612 29.9994 1.15033 30.7234L15.2497 44.8228C15.9729 45.5467 16.9361 45.9455 17.9599 45.9455C18.9846 45.9455 19.947 45.5468 20.6717 44.8221L43.4477 22.0153C45.2185 20.2453 45.9731 18.4776 45.9731 16.1048V3.83452C45.9732 1.72013 44.2531 0 42.1387 0Z" fill="white"/>
<path d="M25.1097 20.1641C25.0386 20.0928 24.9541 20.0363 24.861 19.9977C24.768 19.9591 24.6683 19.9392 24.5675 19.9392C24.4668 19.9392 24.3671 19.9591 24.274 19.9977C24.181 20.0363 24.0965 20.0928 24.0254 20.1641L23.6112 20.5783C23.0046 20.1764 22.2807 19.9394 21.5 19.9394C19.3857 19.9394 17.6655 21.6596 17.6655 23.774C17.6655 24.9167 18.1371 25.8201 18.5482 26.4803C18.9317 27.0961 19.1993 27.9734 19.1993 28.3754C19.1993 29.6438 18.167 30.676 16.8986 30.676C15.6302 30.676 14.5979 29.6438 14.5979 28.3754C14.5979 27.9098 14.7367 27.4612 14.999 27.0778C15.2382 26.7288 15.1485 26.2511 14.7996 26.0118C14.4499 25.7733 13.9729 25.8623 13.7336 26.2113C13.2965 26.8482 13.063 27.6029 13.0641 28.3754C13.0641 29.1561 13.3011 29.8801 13.7029 30.4867L13.2888 30.9008C13.2175 30.972 13.1609 31.0565 13.1223 31.1495C13.0837 31.2425 13.0638 31.3423 13.0638 31.443C13.0638 31.5437 13.0837 31.6435 13.1223 31.7365C13.1609 31.8295 13.2175 31.914 13.2888 31.9852C13.3599 32.0565 13.4444 32.1131 13.5374 32.1516C13.6305 32.1902 13.7302 32.21 13.8309 32.2099C13.9317 32.21 14.0314 32.1902 14.1245 32.1516C14.2175 32.1131 14.302 32.0565 14.3731 31.9852L14.7873 31.5711C15.3939 31.9729 16.1178 32.2099 16.8985 32.2099C19.0128 32.2099 20.733 30.4897 20.733 28.3754C20.733 27.6284 20.3619 26.4903 19.8503 25.669C19.394 24.9366 19.1992 24.3699 19.1992 23.774C19.1992 22.5055 20.2315 21.4733 21.4999 21.4733C22.115 21.4733 22.6709 21.7187 23.0835 22.1136C23.0965 22.1274 23.1011 22.1458 23.1142 22.1596C23.128 22.1726 23.1463 22.1772 23.1602 22.1903C23.5551 22.6029 23.8005 23.1589 23.8005 23.7739C23.8005 24.3889 23.5605 24.9679 23.1248 25.4035C22.8249 25.7026 22.8249 26.1881 23.124 26.4879C23.4223 26.7878 23.9086 26.787 24.2084 26.4887C24.9339 25.7632 25.3342 24.7992 25.3342 23.7739C25.3342 22.9932 25.0972 22.2693 24.6954 21.6626L25.1096 21.2485C25.1809 21.1774 25.2375 21.0929 25.2761 20.9999C25.3147 20.9068 25.3346 20.8071 25.3346 20.7064C25.3346 20.6056 25.3148 20.5059 25.2762 20.4128C25.2376 20.3198 25.181 20.2353 25.1097 20.1641Z" fill="white"/>
</g>
<defs>
<clipPath id="clip0_16_5972">
<rect width="46" height="46" fill="white"/>
</clipPath>
</defs>
</svg>
