<svg width="78" height="78" viewBox="0 0 78 78" fill="none" xmlns="http://www.w3.org/2000/svg">
<rect width="78" height="78" rx="39" fill="#292929"/>
<g clip-path="url(#clip0_26_6291)">
<g clip-path="url(#clip1_26_6291)">
<g clip-path="url(#clip2_26_6291)">
<path d="M41.4027 47.4823C44.61 40.2033 51.3453 40.8362 54.5581 44.8283C57.7708 48.8203 53.7507 53.9701 50.2227 54.6031C46.6947 55.2361 41.0821 52.8624 41.0918 44.9243C41.1049 34.3485 52.2398 24.2159 53.4634 23.3262" stroke="white" stroke-width="3.1374" stroke-linecap="round"/>
<path d="M22.5781 47.4823C25.7853 40.2033 32.5205 40.8362 35.7334 44.8283C38.9461 48.8203 34.926 53.9701 31.398 54.6031C27.87 55.2361 22.2573 52.8624 22.2671 44.9243C22.2801 34.3485 33.4151 24.2159 34.6387 23.3262" stroke="white" stroke-width="3.1374" stroke-linecap="round"/>
</g>
</g>
</g>
<defs>
<clipPath id="clip0_26_6291">
<rect width="37.6552" height="35.5572" fill="white" transform="translate(20.1724 21.2349)"/>
</clipPath>
<clipPath id="clip1_26_6291">
<rect width="37.6552" height="35.5572" fill="white" transform="translate(20.1724 21.2349)"/>
</clipPath>
<clipPath id="clip2_26_6291">
<rect width="37.6488" height="35.5572" fill="white" transform="translate(20.1755 21.2349)"/>
</clipPath>
</defs>
</svg>
