<svg width="84" height="84" viewBox="0 0 84 84" fill="none" xmlns="http://www.w3.org/2000/svg">
<path d="M39.8182 0.33564C37.5245 0.33564 35.6084 0.587395 34.0699 1.09089C32.5315 1.59438 31.2867 2.3776 30.3357 3.44054C29.2168 4.67131 28.6014 6.34963 28.4895 8.4755C28.3776 9.70627 28.4895 11.7482 28.8252 14.6014C29.2168 17.6224 29.3846 19.9161 29.3287 21.4825C29.2727 24.1119 28.7133 26.4615 27.6503 28.5314C26.4196 31.0489 24.4336 33.3147 21.6923 35.3286C14.0839 40.7552 8.75523 46.0279 5.70628 51.1468C2.65733 56.2657 1.86013 61.1189 3.31467 65.7063C4.60139 69.5664 7.39859 72.951 11.7063 75.8601C15.5105 78.3776 20.1259 80.3356 25.5524 81.7342C30.4755 83.021 35.2308 83.6643 39.8182 83.6643C45.4685 83.6643 50.8671 82.5734 56.014 80.3916C60.993 78.2657 65.3986 75.2867 69.2308 71.4545C73.0629 67.6224 76.0419 63.2168 78.1678 58.2377C80.3496 53.0349 81.4405 47.6224 81.4405 42C81.4405 36.3776 80.3496 30.965 78.1678 25.7622C76.0419 20.7832 73.0629 16.3776 69.2308 12.5454C65.3986 8.71326 60.993 5.73425 56.014 3.60837C50.8671 1.42655 45.4685 0.33564 39.8182 0.33564Z" fill="#F3F3ED"/>
<path d="M42 16C34.4398 16 28.2891 22.1507 28.2891 29.7109C28.2891 37.2711 34.4398 43.4219 42 43.4219C49.5602 43.4219 55.7109 37.2711 55.7109 29.7109C55.7109 22.1507 49.5602 16 42 16ZM42 40.375C36.1198 40.375 31.3359 35.5911 31.3359 29.7109C31.3359 23.8308 36.1198 19.0469 42 19.0469C47.8802 19.0469 52.6641 23.8308 52.6641 29.7109C52.6641 35.5911 47.8802 40.375 42 40.375ZM59.059 52.3792C55.3053 48.5677 50.329 46.4688 45.0469 46.4688H38.9531C33.6711 46.4688 28.6947 48.5677 24.941 52.3792C21.2056 56.1719 19.1484 61.1784 19.1484 66.4766C19.1484 67.3179 19.8305 68 20.6719 68H63.3281C64.1695 68 64.8516 67.3179 64.8516 66.4766C64.8516 61.1784 62.7944 56.1719 59.059 52.3792ZM22.2623 64.9531C23.0256 56.3116 30.2199 49.5156 38.9531 49.5156H45.0469C53.7801 49.5156 60.9744 56.3116 61.7377 64.9531H22.2623Z" fill="#585C59"/>
</svg>
