<svg width="38" height="40" viewBox="0 0 38 40" fill="none" xmlns="http://www.w3.org/2000/svg">
<path d="M3.52825 2.49439C3.21516 2.5006 2.91704 2.63654 2.69858 2.87269C2.48012 3.10884 2.35894 3.42615 2.36136 3.75576V36.2537C2.36017 36.5849 2.48371 36.9031 2.70494 37.1387C2.92618 37.3742 3.22706 37.5078 3.54171 37.5103H34.4237C34.7392 37.5103 35.0417 37.3784 35.2647 37.1437C35.4877 36.9089 35.613 36.5904 35.613 36.2584C35.613 35.9264 35.4877 35.608 35.2647 35.3732C35.0417 35.1384 34.7392 35.0065 34.4237 35.0065H4.73552V3.75576C4.73675 3.58856 4.70614 3.42279 4.64551 3.26824C4.58488 3.11369 4.49545 2.97349 4.3825 2.85592C4.26955 2.73835 4.13537 2.64578 3.98788 2.58369C3.84039 2.5216 3.68707 2.49123 3.52825 2.49439ZM34.3968 10.6201C34.0898 10.6309 33.7987 10.7663 33.5845 10.998L21.3995 23.8243L16.2922 17.919C16.0797 17.6758 15.7844 17.5308 15.4709 17.5158C15.1573 17.5007 14.8507 17.6168 14.6181 17.8387L7.49565 24.7077C7.37204 24.8162 7.27063 24.95 7.19757 25.1009C7.12452 25.2519 7.08133 25.4169 7.07062 25.5859C7.05992 25.755 7.08192 25.9246 7.1353 26.0844C7.18868 26.2442 7.27232 26.391 7.38116 26.5158C7.49 26.6406 7.62177 26.7409 7.7685 26.8105C7.91523 26.8801 8.07385 26.9177 8.23477 26.9209C8.39569 26.9241 8.55556 26.8929 8.70469 26.8292C8.85381 26.7654 8.9891 26.6705 9.10236 26.5501L15.3497 20.5315L20.475 26.4746C20.583 26.5998 20.7139 26.7008 20.86 26.7713C21.0061 26.8419 21.1642 26.8805 21.3248 26.8849C21.4855 26.8893 21.6453 26.8594 21.7947 26.797C21.9441 26.7346 22.0799 26.641 22.1939 26.5218L35.254 12.7649C35.4226 12.5886 35.5372 12.3633 35.583 12.1179C35.6289 11.8724 35.6038 11.6182 35.5111 11.3879C35.4183 11.1576 35.2622 10.9619 35.0628 10.8258C34.8634 10.6898 34.6299 10.6198 34.3923 10.6248L34.3968 10.6201Z" fill="#B262F7"/>
</svg>
