<svg width="49" height="49" viewBox="0 0 49 49" fill="none" xmlns="http://www.w3.org/2000/svg">
<path d="M46.7031 13.7812H42.1094C41.9063 13.7812 41.7116 13.8619 41.568 14.0055C41.4244 14.1491 41.3438 14.3438 41.3438 14.5469V43.6406C41.3438 43.8437 41.4244 44.0384 41.568 44.182C41.7116 44.3256 41.9063 44.4062 42.1094 44.4062H46.7031C46.9062 44.4062 47.1009 44.3256 47.2445 44.182C47.3881 44.0384 47.4688 43.8437 47.4688 43.6406V14.5469C47.4688 14.3438 47.3881 14.1491 47.2445 14.0055C47.1009 13.8619 46.9062 13.7812 46.7031 13.7812ZM45.9375 42.875H42.875V15.3125H45.9375V42.875ZM39.0469 44.4062C39.2499 44.4062 39.4447 44.3256 39.5883 44.182C39.7318 44.0384 39.8125 43.8437 39.8125 43.6406V20.6719C39.8125 20.4688 39.7318 20.2741 39.5883 20.1305C39.4447 19.9869 39.2499 19.9062 39.0469 19.9062H34.4531C34.2501 19.9062 34.0553 19.9869 33.9117 20.1305C33.7682 20.2741 33.6875 20.4688 33.6875 20.6719V43.6406C33.6875 43.8437 33.7682 44.0384 33.9117 44.182C34.0553 44.3256 34.2501 44.4062 34.4531 44.4062H39.0469ZM35.2188 21.4375H38.2812V42.875H35.2188V21.4375ZM31.3906 44.4062C31.5937 44.4062 31.7884 44.3256 31.932 44.182C32.0756 44.0384 32.1562 43.8437 32.1562 43.6406V26.0312C32.1562 25.8282 32.0756 25.6335 31.932 25.4899C31.7884 25.3463 31.5937 25.2656 31.3906 25.2656H26.7969C26.5938 25.2656 26.3991 25.3463 26.2555 25.4899C26.1119 25.6335 26.0312 25.8282 26.0312 26.0312V43.6406C26.0312 43.8437 26.1119 44.0384 26.2555 44.182C26.3991 44.3256 26.5938 44.4062 26.7969 44.4062H31.3906ZM27.5625 26.7969H30.625V42.875H27.5625V26.7969ZM23.7344 44.4062C23.9374 44.4062 24.1322 44.3256 24.2758 44.182C24.4193 44.0384 24.5 43.8437 24.5 43.6406V32.1562C24.5 31.9532 24.4193 31.7585 24.2758 31.6149C24.1322 31.4713 23.9374 31.3906 23.7344 31.3906H19.1406C18.9376 31.3906 18.7428 31.4713 18.5992 31.6149C18.4557 31.7585 18.375 31.9532 18.375 32.1562V43.6406C18.375 43.8437 18.4557 44.0384 18.5992 44.182C18.7428 44.3256 18.9376 44.4062 19.1406 44.4062H23.7344ZM19.9062 32.9219H22.9688V42.875H19.9062V32.9219ZM16.0781 44.4062C16.2812 44.4062 16.4759 44.3256 16.6195 44.182C16.7631 44.0384 16.8438 43.8437 16.8438 43.6406V35.2188C16.8438 35.0157 16.7631 34.821 16.6195 34.6774C16.4759 34.5338 16.2812 34.4531 16.0781 34.4531H11.4844C11.2813 34.4531 11.0866 34.5338 10.943 34.6774C10.7994 34.821 10.7188 35.0157 10.7188 35.2188V43.6406C10.7188 43.8437 10.7994 44.0384 10.943 44.182C11.0866 44.3256 11.2813 44.4062 11.4844 44.4062H16.0781ZM12.25 35.9844H15.3125V42.875H12.25V35.9844ZM8.42188 44.4062C8.62493 44.4062 8.81967 44.3256 8.96325 44.182C9.10684 44.0384 9.1875 43.8437 9.1875 43.6406V39.0469C9.1875 38.8438 9.10684 38.6491 8.96325 38.5055C8.81967 38.3619 8.62493 38.2812 8.42188 38.2812H3.82812C3.62507 38.2812 3.43033 38.3619 3.28675 38.5055C3.14316 38.6491 3.0625 38.8438 3.0625 39.0469V43.6406C3.0625 43.8437 3.14316 44.0384 3.28675 44.182C3.43033 44.3256 3.62507 44.4062 3.82812 44.4062H8.42188ZM4.59375 39.8125H7.65625V42.875H4.59375V39.8125ZM20.6719 13.7812H22.2031C22.4062 13.7812 22.6009 13.7006 22.7445 13.557C22.8881 13.4134 22.9688 13.2187 22.9688 13.0156C22.9688 12.8126 22.8881 12.6178 22.7445 12.4742C22.6009 12.3307 22.4062 12.25 22.2031 12.25H21.4375V11.4844C21.4375 11.2813 21.3568 11.0866 21.2133 10.943C21.0697 10.7994 20.8749 10.7188 20.6719 10.7188C20.4688 10.7188 20.2741 10.7994 20.1305 10.943C19.9869 11.0866 19.9062 11.2813 19.9062 11.4844V12.3817C19.3956 12.5625 18.9654 12.9179 18.6914 13.3851C18.4174 13.8524 18.3174 14.4015 18.409 14.9353C18.5006 15.4692 18.7779 15.9535 19.192 16.3027C19.6061 16.6519 20.1302 16.8435 20.6719 16.8438C20.8749 16.8438 21.0697 16.9244 21.2133 17.068C21.3568 17.2116 21.4375 17.4063 21.4375 17.6094C21.4375 17.8124 21.3568 18.0072 21.2133 18.1508C21.0697 18.2943 20.8749 18.375 20.6719 18.375H19.1406C18.9376 18.375 18.7428 18.4557 18.5992 18.5992C18.4557 18.7428 18.375 18.9376 18.375 19.1406C18.375 19.3437 18.4557 19.5384 18.5992 19.682C18.7428 19.8256 18.9376 19.9062 19.1406 19.9062H19.9062V20.6719C19.9062 20.8749 19.9869 21.0697 20.1305 21.2133C20.2741 21.3568 20.4688 21.4375 20.6719 21.4375C20.8749 21.4375 21.0697 21.3568 21.2133 21.2133C21.3568 21.0697 21.4375 20.8749 21.4375 20.6719V19.7746C21.9481 19.5938 22.3784 19.2384 22.6524 18.7711C22.9263 18.3039 23.0263 17.7548 22.9347 17.2209C22.8431 16.6871 22.5658 16.2028 22.1518 15.8536C21.7377 15.5044 21.2135 15.3127 20.6719 15.3125C20.4688 15.3125 20.2741 15.2318 20.1305 15.0883C19.9869 14.9447 19.9062 14.7499 19.9062 14.5469C19.9062 14.3438 19.9869 14.1491 20.1305 14.0055C20.2741 13.8619 20.4688 13.7812 20.6719 13.7812Z" fill="#3B70D2"/>
<path d="M46.7031 4.59375H42.1094C41.9063 4.59375 41.7116 4.67441 41.568 4.818C41.4244 4.96158 41.3438 5.15632 41.3438 5.35937C41.3438 5.56243 41.4244 5.75717 41.568 5.90075C41.7116 6.04434 41.9063 6.125 42.1094 6.125H44.8547L34.136 16.8437H29.8272C29.8485 16.5891 29.8593 16.3337 29.8594 16.0781C29.8593 14.3334 29.3625 12.6248 28.427 11.1521C27.4915 9.67941 26.1559 8.50354 24.5766 7.76203C22.9974 7.02051 21.2396 6.74401 19.5089 6.96487C17.7782 7.18572 16.1462 7.8948 14.8037 9.00916C13.4613 10.1235 12.4639 11.5971 11.9282 13.2575C11.3925 14.918 11.3407 16.6966 11.7787 18.3854C12.2168 20.0742 13.1267 21.6034 14.402 22.794C15.6773 23.9847 17.2653 24.7876 18.9802 25.1089L15.7611 28.3281H9.95315C9.8526 28.3281 9.75304 28.3479 9.66015 28.3864C9.56725 28.4249 9.48285 28.4813 9.41175 28.5524L1.7555 36.2086C1.61192 36.3522 1.53125 36.5469 1.53125 36.75C1.53125 36.9531 1.61192 37.1478 1.7555 37.2914C1.89909 37.435 2.09383 37.5156 2.29689 37.5156C2.49996 37.5156 2.6947 37.435 2.83829 37.2914L10.2702 29.8594H16.0781C16.1787 29.8594 16.2783 29.8396 16.3711 29.8011C16.464 29.7626 16.5484 29.7062 16.6195 29.6351L20.9954 25.2593C22.9749 25.1869 24.8782 24.478 26.4228 23.2377C27.9673 21.9975 29.0706 20.2922 29.5687 18.375H34.4531C34.5537 18.375 34.6533 18.3552 34.7461 18.3167C34.839 18.2783 34.9234 18.2219 34.9945 18.1508L45.9375 7.20779V9.95312C45.9375 10.1562 46.0182 10.3509 46.1618 10.4945C46.3053 10.6381 46.5001 10.7187 46.7031 10.7187C46.9062 10.7187 47.1009 10.6381 47.2445 10.4945C47.3881 10.3509 47.4688 10.1562 47.4688 9.95312V5.35937C47.4688 5.15632 47.3881 4.96158 47.2445 4.818C47.1009 4.67441 46.9062 4.59375 46.7031 4.59375ZM20.6719 23.7344C19.1576 23.7344 17.6774 23.2853 16.4183 22.4441C15.1592 21.6028 14.1779 20.407 13.5984 19.008C13.019 17.609 12.8673 16.0696 13.1628 14.5845C13.4582 13.0993 14.1874 11.7351 15.2581 10.6643C16.3289 9.59359 17.6931 8.86441 19.1782 8.56899C20.6634 8.27357 22.2028 8.42519 23.6018 9.00467C25.0008 9.58416 26.1966 10.5655 27.0378 11.8245C27.8791 13.0836 28.3281 14.5639 28.3281 16.0781C28.3258 18.108 27.5185 20.054 26.0831 21.4894C24.6478 22.9247 22.7018 23.7321 20.6719 23.7344Z" fill="#3B70D2"/>
</svg>
