<svg width="84" height="84" viewBox="0 0 84 84" fill="none" xmlns="http://www.w3.org/2000/svg">
<path d="M39.8182 0.33564C37.5245 0.33564 35.6084 0.587395 34.0699 1.09089C32.5315 1.59438 31.2867 2.3776 30.3357 3.44054C29.2168 4.67131 28.6014 6.34963 28.4895 8.4755C28.3776 9.70627 28.4895 11.7482 28.8252 14.6014C29.2168 17.6224 29.3846 19.9161 29.3287 21.4825C29.2727 24.1119 28.7133 26.4615 27.6503 28.5314C26.4196 31.0489 24.4336 33.3147 21.6923 35.3286C14.0839 40.7552 8.75523 46.0279 5.70628 51.1468C2.65733 56.2657 1.86013 61.1189 3.31467 65.7063C4.60139 69.5664 7.39859 72.951 11.7063 75.8601C15.5105 78.3776 20.1259 80.3356 25.5524 81.7342C30.4755 83.021 35.2308 83.6643 39.8182 83.6643C45.4685 83.6643 50.8671 82.5734 56.014 80.3916C60.993 78.2657 65.3986 75.2867 69.2308 71.4545C73.0629 67.6224 76.0419 63.2168 78.1678 58.2377C80.3496 53.0349 81.4405 47.6224 81.4405 42C81.4405 36.3776 80.3496 30.965 78.1678 25.7622C76.0419 20.7832 73.0629 16.3776 69.2308 12.5454C65.3986 8.71326 60.993 5.73425 56.014 3.60837C50.8671 1.42655 45.4685 0.33564 39.8182 0.33564Z" fill="#F3F3ED"/>
<g clip-path="url(#clip0_11_1542)">
<path d="M68.3402 65.1588L52.9841 49.8027C55.9586 46.1285 57.7495 41.4597 57.7495 36.3748C57.7495 24.5894 48.1601 15 36.3747 15C24.5893 15 15 24.5893 15 36.3747C15 48.1601 24.5894 57.7495 36.3748 57.7495C41.4597 57.7495 46.1285 55.9586 49.8027 52.9841L65.1588 68.3402C65.5975 68.7789 66.1735 68.9995 66.7495 68.9995C67.3256 68.9995 67.9016 68.7789 68.3403 68.3402C69.22 67.4605 69.22 66.0385 68.3402 65.1588ZM36.3748 53.2496C27.0689 53.2496 19.5 45.6807 19.5 36.3747C19.5 27.0688 27.0689 19.4999 36.3748 19.4999C45.6808 19.4999 53.2497 27.0688 53.2497 36.3747C53.2497 45.6807 45.6807 53.2496 36.3748 53.2496Z" fill="#585C59"/>
</g>
<defs>
<clipPath id="clip0_11_1542">
<rect width="54" height="54" fill="white" transform="translate(15 15)"/>
</clipPath>
</defs>
</svg>
