<svg width="20" height="20" viewBox="0 0 20 20" fill="none" xmlns="http://www.w3.org/2000/svg">
<path d="M9.29671 4.09143C8.35454 4.09143 7.48233 4.32931 6.68008 4.80506C5.88716 5.26215 5.26215 5.88716 4.80506 6.68008C4.32931 7.48233 4.09143 8.35687 4.09143 9.30371C4.09143 10.2506 4.32931 11.1251 4.80506 11.9273C5.26215 12.7109 5.88716 13.3359 6.68008 13.8024C7.48233 14.2781 8.35687 14.516 9.30371 14.516C10.2506 14.516 11.1251 14.2781 11.9273 13.8024C12.7109 13.3359 13.3359 12.7109 13.8024 11.9273C14.2781 11.1251 14.516 10.2506 14.516 9.30371C14.516 8.35687 14.2781 7.48233 13.8024 6.68008C13.3359 5.88716 12.7109 5.26215 11.9273 4.80506C11.1251 4.32931 10.2482 4.09143 9.29671 4.09143ZM3 9.29671C3 8.15864 3.28452 7.09986 3.85355 6.12037C4.41326 5.16887 5.16887 4.41326 6.12037 3.85355C7.09986 3.28452 8.16097 3 9.30371 3C10.4464 3 11.5076 3.28452 12.4871 3.85355C13.4386 4.41326 14.1895 5.16887 14.7399 6.12037C15.3182 7.09986 15.6074 8.16097 15.6074 9.30371C15.6074 10.4464 15.3182 11.5076 14.7399 12.4871C14.1895 13.4386 13.4386 14.1895 12.4871 14.7399C11.5076 15.3182 10.4464 15.6074 9.30371 15.6074C8.16097 15.6074 7.09986 15.3182 6.12037 14.7399C5.16887 14.1895 4.41326 13.4386 3.85355 12.4871C3.28452 11.5076 3 10.4441 3 9.29671ZM12.9628 12.9628C13.0561 12.8602 13.175 12.8089 13.3196 12.8089C13.4642 12.8089 13.5878 12.8602 13.6904 12.9628L16.8528 16.1112C16.9554 16.2138 17.0044 16.3374 16.9997 16.482C16.995 16.6266 16.9437 16.7478 16.8458 16.8458C16.7478 16.9437 16.6266 16.995 16.482 16.9997C16.3374 17.0044 16.2138 16.9554 16.1112 16.8528L12.9628 13.6904C12.8602 13.5878 12.8089 13.4642 12.8089 13.3196C12.8089 13.175 12.8602 13.0561 12.9628 12.9628Z" fill="white"/>
</svg>
