<svg width="56" height="56" viewBox="0 0 56 56" fill="none" xmlns="http://www.w3.org/2000/svg">
<g clip-path="url(#clip0_16_5982)">
<path d="M51.0119 9.66996C43.307 7.55881 35.5568 4.27155 28.5991 0.163653C28.4177 0.0565153 28.2109 0 28.0003 0C27.7896 0 27.5828 0.0565153 27.4015 0.163653C20.2431 4.38957 12.9117 7.49898 4.98805 9.66996C4.73903 9.73817 4.51932 9.88632 4.36273 10.0916C4.20613 10.2969 4.12133 10.548 4.12137 10.8061V22.8424C4.12137 35.2371 9.83937 43.4415 14.6363 48.1414C19.8006 53.2017 25.8162 56 28.0003 56C30.1842 56 36.1998 53.2017 41.364 48.1414C46.1609 43.4416 51.8786 35.2372 51.8786 22.8424V10.806C51.8786 10.2754 51.5237 9.81007 51.0119 9.66996ZM49.5226 22.8423C49.5226 34.4188 44.1894 42.0745 39.7151 46.4585C34.6367 51.4345 29.207 53.6439 28.0003 53.6439C26.7936 53.6439 21.3635 51.4345 16.285 46.4585C11.8109 42.0744 6.47741 34.4188 6.47741 22.8423V11.7003C14.0547 9.54888 21.1113 6.54644 28.0005 2.54299C34.7177 6.44023 42.1264 9.59198 49.5226 11.6998V22.8423Z" fill="white"/>
<path d="M17.5588 11.5685C17.3204 10.9631 16.6365 10.6658 16.031 10.9043C13.9186 11.7363 11.7773 12.4929 9.61122 13.1728C9.37191 13.2479 9.1628 13.3974 9.01433 13.5996C8.86587 13.8017 8.78579 14.046 8.78577 14.2968V18.8458C8.78577 19.4964 9.31328 20.0238 9.96373 20.0238C10.6142 20.0238 11.1417 19.4964 11.1417 18.8458V15.1577C13.0803 14.5304 14.9988 13.8429 16.8946 13.0962C17.5 12.8579 17.7974 12.1739 17.5588 11.5685ZM19.7965 11.792C19.9546 11.792 20.115 11.7602 20.2689 11.693L20.2906 11.6836C20.8866 11.4224 21.155 10.7286 20.8938 10.1329C20.6324 9.5369 19.9347 9.26729 19.3394 9.52826L19.3203 9.53646C18.724 9.79688 18.4547 10.4901 18.7152 11.0862C18.9084 11.5287 19.3421 11.792 19.7965 11.792ZM42.0352 37.9841C41.4909 37.6283 40.7609 37.7813 40.4047 38.3259C39.434 39.8117 38.2951 41.2344 37.0194 42.5543C35.9701 43.6397 34.8406 44.6446 33.6405 45.5604C33.1232 45.9548 33.0237 46.694 33.418 47.2114C33.5279 47.3558 33.6698 47.4728 33.8324 47.5533C33.9951 47.6338 34.1741 47.6755 34.3556 47.6753C34.6047 47.6753 34.8557 47.5967 35.069 47.4339C36.3633 46.4461 37.5814 45.3624 38.7131 44.1918C40.0924 42.7651 41.325 41.2251 42.377 39.6146C42.733 39.0699 42.5798 38.3399 42.0352 37.9841ZM30.9048 47.4079L30.8372 47.4477C30.2742 47.7737 30.0818 48.4943 30.4078 49.0573C30.4852 49.1912 30.5883 49.3085 30.7111 49.4026C30.834 49.4967 30.9741 49.5656 31.1236 49.6055C31.2731 49.6453 31.429 49.6553 31.5823 49.6349C31.7357 49.6145 31.8835 49.564 32.0173 49.4864L32.0953 49.4406C32.6567 49.1118 32.8453 48.3903 32.5165 47.8289C32.1875 47.2677 31.4659 47.0794 30.9048 47.4079ZM19.9707 25.5959C19.2474 24.8725 18.2854 24.4744 17.2623 24.4744C16.2392 24.4744 15.2772 24.8726 14.5535 25.5959C13.0603 27.0895 13.0603 29.5198 14.5535 31.0133L21.5094 37.9689C22.2328 38.6921 23.1947 39.0904 24.2179 39.0904C25.2411 39.0904 26.2031 38.6921 26.9266 37.9687L41.4473 23.4479C42.9405 21.9539 42.9405 19.5239 41.4471 18.0309C40.7237 17.3074 39.7618 16.9093 38.7384 16.9093C37.7152 16.9093 36.7533 17.3076 36.0298 18.0309L24.2178 29.8428L19.9707 25.5959ZM37.6958 19.6969C37.8324 19.5595 37.9949 19.4507 38.1739 19.3766C38.3529 19.3025 38.5448 19.2647 38.7385 19.2653C39.1327 19.2653 39.5029 19.4185 39.7814 19.6969C40.3562 20.2716 40.3562 21.2072 39.7812 21.7822L25.2607 36.3028C24.9823 36.5812 24.6119 36.7344 24.2179 36.7344C23.824 36.7344 23.4535 36.5812 23.175 36.3028L16.2194 29.3474C15.6445 28.7725 15.6445 27.8369 16.2192 27.2621C16.4977 26.9837 16.8681 26.8303 17.2622 26.8303C17.6563 26.8303 18.0265 26.9835 18.3049 27.2619L23.3848 32.3419C23.6059 32.5627 23.9053 32.6869 24.2178 32.6869C24.5303 32.6869 24.8298 32.5628 25.0506 32.3419L37.6958 19.6969Z" fill="white"/>
</g>
<defs>
<clipPath id="clip0_16_5982">
<rect width="56" height="56" fill="white"/>
</clipPath>
</defs>
</svg>
