<svg width="37" height="37" viewBox="0 0 37 37" fill="none" xmlns="http://www.w3.org/2000/svg">
<g clip-path="url(#clip0_503_788)">
<path d="M6.57287 18.5956C6.41955 18.5956 6.2725 18.6565 6.16408 18.7649C6.05566 18.8733 5.99475 19.0204 5.99475 19.1737V27.4478C5.99475 27.6012 6.05566 27.7482 6.16408 27.8566C6.2725 27.965 6.41955 28.026 6.57287 28.026H20.0555C20.2088 28.026 20.3559 27.965 20.4643 27.8566C20.5727 27.7482 20.6336 27.6012 20.6336 27.4478V19.1737C20.6336 19.0204 20.5727 18.8733 20.4643 18.7649C20.3559 18.6565 20.2088 18.5956 20.0555 18.5956H6.57287ZM19.4774 26.8697H7.151V19.7518H19.4774V26.8697ZM3.69535 15.3727C4.45671 15.45 5.22444 15.3111 5.91049 14.9721C6.59655 14.633 7.17315 14.1074 7.57419 13.4557C7.91714 14.1197 8.4328 14.679 9.06686 15.0746C9.70092 15.4702 10.4299 15.6876 11.1771 15.7038C11.9243 15.7199 12.6621 15.5343 13.3126 15.1665C13.9632 14.7987 14.5026 14.2623 14.874 13.6137C15.0377 13.8955 15.2329 14.1577 15.456 14.3953C15.8479 14.809 16.32 15.1385 16.8435 15.3637C17.367 15.5889 17.9309 15.705 18.5007 15.705C19.0706 15.705 19.6345 15.5889 20.158 15.3637C20.6815 15.1385 21.1536 14.809 21.5455 14.3953C21.7686 14.1577 21.9638 13.8955 22.1275 13.6137C22.5003 14.2605 23.0402 14.7952 23.6906 15.1616C24.3411 15.5281 25.0781 15.7129 25.8245 15.6967C26.5708 15.6805 27.2991 15.4638 27.933 15.0694C28.5669 14.675 29.083 14.1173 29.4273 13.4549C29.9461 14.2909 30.7485 14.9121 31.6878 15.2049C32.627 15.4978 33.6404 15.4426 34.5423 15.0496C35.4442 14.6565 36.1745 13.9519 36.5995 13.0645C37.0245 12.1772 37.1157 11.1665 36.8566 10.2174L34.9195 3.07177V0.578125C34.9195 0.424797 34.8586 0.277748 34.7502 0.169329C34.6417 0.0609094 34.4947 0 34.3414 0L2.65781 0C2.50488 0.000611714 2.35843 0.0617911 2.25051 0.170144C2.14259 0.278498 2.082 0.425197 2.082 0.578125V3.07717L0.144895 10.2197C-0.0109954 10.7945 -0.0397846 11.3964 0.0605299 11.9835C0.160844 12.5705 0.387854 13.1287 0.725767 13.6191C1.06368 14.1096 1.50438 14.5205 2.01722 14.8233C2.53006 15.1262 3.10271 15.3137 3.69535 15.3727ZM11.2765 14.5487C10.8392 14.5488 10.4072 14.4539 10.0102 14.2704C9.61327 14.087 9.26094 13.8195 8.97764 13.4864C8.69433 13.1533 8.48681 12.7626 8.36946 12.3414C8.25211 11.9201 8.22773 11.4784 8.298 11.0468L9.48739 3.72775H14.7237L14.3144 11.2819L14.292 11.6912C14.2506 12.463 13.9148 13.1894 13.3538 13.721C12.7928 14.2526 12.0493 14.5488 11.2765 14.5487ZM20.7061 13.6006C20.2786 14.0532 19.7224 14.3635 19.1128 14.4895C18.5032 14.6156 17.8695 14.5513 17.2976 14.3054C16.7257 14.0595 16.2432 13.6438 15.9153 13.1146C15.5874 12.5854 15.43 11.9683 15.4644 11.3467L15.4883 10.9019L15.8737 3.72775H21.1154L21.5008 10.9019L21.5247 11.3467C21.55 11.7584 21.4904 12.1709 21.3495 12.5587C21.2087 12.9464 20.9897 13.301 20.7061 13.6006ZM28.0236 13.4865C27.6323 13.9461 27.1122 14.2779 26.5304 14.4389C25.9486 14.6 25.3319 14.5828 24.7599 14.3898C24.1879 14.1968 23.687 13.8367 23.3218 13.3561C22.9565 12.8754 22.7438 12.2963 22.711 11.6935L22.6887 11.2842L22.2794 3.73006H27.5141L28.7035 11.0491C28.7742 11.4809 28.75 11.9228 28.6326 12.3443C28.5152 12.7658 28.3074 13.1566 28.0236 13.4896V13.4865ZM35.3226 12.9631C34.9892 13.447 34.5186 13.82 33.9714 14.0342C33.4242 14.2484 32.8254 14.294 32.2521 14.1651C31.6788 14.0362 31.1571 13.7387 30.7543 13.3109C30.3514 12.8831 30.0858 12.3445 29.9916 11.7645L28.685 3.72775H33.9005L35.7404 10.5219C35.8526 10.9347 35.8734 11.367 35.8012 11.7886C35.7291 12.2103 35.5657 12.6111 35.3226 12.9631ZM3.23825 1.15625H33.7632V2.5715H3.23825V1.15625ZM1.26106 10.5219L3.10104 3.72775H8.3165L7.51098 8.68267L7.15639 10.861L7.00994 11.7637C6.94568 12.1578 6.80191 12.5348 6.58739 12.8717C6.37286 13.2085 6.09205 13.4982 5.76204 13.7231C5.43204 13.948 5.05973 14.1035 4.66776 14.18C4.27579 14.2565 3.87236 14.2524 3.482 14.1681C3.09164 14.0838 2.72251 13.9209 2.39707 13.6895C2.07163 13.458 1.79667 13.1628 1.58892 12.8217C1.38117 12.4806 1.24497 12.1008 1.18861 11.7055C1.13225 11.3101 1.1569 10.9074 1.26106 10.5219Z" fill="#EABB57"/>
<path d="M36.4219 33.246H34.9187V16.6569C34.9187 16.5036 34.8578 16.3566 34.7494 16.2481C34.641 16.1397 34.494 16.0788 34.3406 16.0788C34.1873 16.0788 34.0402 16.1397 33.9318 16.2481C33.8234 16.3566 33.7625 16.5036 33.7625 16.6569V33.246H31.8239V19.1737C31.8239 19.0204 31.7629 18.8733 31.6545 18.7649C31.5461 18.6565 31.3991 18.5956 31.2457 18.5956H23.7525C23.5991 18.5956 23.4521 18.6565 23.3437 18.7649C23.2352 18.8733 23.1743 19.0204 23.1743 19.1737V33.246H3.2375V16.6631C3.2375 16.5098 3.17659 16.3627 3.06817 16.2543C2.95975 16.1459 2.8127 16.085 2.65937 16.085C2.50605 16.085 2.359 16.1459 2.25058 16.2543C2.14216 16.3627 2.08125 16.5098 2.08125 16.6631V33.246H0.578125C0.424797 33.246 0.277748 33.307 0.169329 33.4154C0.0609094 33.5238 0 33.6708 0 33.8242L0 36.4219C0 36.5752 0.0609094 36.7223 0.169329 36.8307C0.277748 36.9391 0.424797 37 0.578125 37H36.4219C36.5752 37 36.7223 36.9391 36.8307 36.8307C36.9391 36.7223 37 36.5752 37 36.4219V33.8242C37 33.6708 36.9391 33.5238 36.8307 33.4154C36.7223 33.307 36.5752 33.246 36.4219 33.246ZM24.3306 19.7518H30.6676V33.246H24.3306V19.7518ZM35.8438 35.8438H1.15625V34.4023H35.8438V35.8438Z" fill="#EABB57"/>
</g>
<defs>
<clipPath id="clip0_503_788">
<rect width="37" height="37" fill="white"/>
</clipPath>
</defs>
</svg>
