<svg width="86" height="84" viewBox="0 0 86 84" fill="none" xmlns="http://www.w3.org/2000/svg">
<path d="M39.8182 0.33564C37.5245 0.33564 35.6084 0.587395 34.0699 1.09089C32.5315 1.59438 31.2867 2.3776 30.3357 3.44054C29.2168 4.67131 28.6014 6.34963 28.4895 8.4755C28.3776 9.70627 28.4895 11.7482 28.8252 14.6014C29.2168 17.6224 29.3846 19.9161 29.3287 21.4825C29.2727 24.1119 28.7133 26.4615 27.6503 28.5314C26.4196 31.0489 24.4336 33.3147 21.6923 35.3286C14.0839 40.7552 8.75523 46.0279 5.70628 51.1468C2.65733 56.2657 1.86013 61.1189 3.31467 65.7063C4.60139 69.5664 7.39859 72.951 11.7063 75.8601C15.5105 78.3776 20.1259 80.3356 25.5524 81.7342C30.4755 83.021 35.2308 83.6643 39.8182 83.6643C45.4685 83.6643 50.8671 82.5734 56.014 80.3916C60.993 78.2657 65.3986 75.2867 69.2308 71.4545C73.0629 67.6224 76.0419 63.2168 78.1678 58.2377C80.3496 53.0349 81.4405 47.6224 81.4405 42C81.4405 36.3776 80.3496 30.965 78.1678 25.7622C76.0419 20.7832 73.0629 16.3776 69.2308 12.5454C65.3986 8.71326 60.993 5.73425 56.014 3.60837C50.8671 1.42655 45.4685 0.33564 39.8182 0.33564Z" fill="#F3F3ED"/>
<g clip-path="url(#clip0_353_89)">
<path d="M22.3668 55.2896C17.7893 55.2896 14.0668 59.054 14.0668 63.683C14.0668 68.312 17.7893 72.0764 22.3668 72.0764C26.9443 72.0764 30.6668 68.312 30.6668 63.683C30.6668 59.054 26.9441 55.2896 22.3668 55.2896ZM22.3668 69.2786C19.3151 69.2786 16.8335 66.7689 16.8335 63.683C16.8335 60.5969 19.3152 58.0874 22.3668 58.0874C25.4183 58.0874 27.9001 60.5971 27.9001 63.683C27.9001 66.7689 25.4183 69.2786 22.3668 69.2786ZM69.4 55.2896C64.8226 55.2896 61.1 59.054 61.1 63.683C61.1 68.312 64.8226 72.0764 69.4 72.0764C73.9775 72.0764 77.7 68.312 77.7 63.683C77.7 59.054 73.9775 55.2896 69.4 55.2896ZM69.4 69.2786C66.3483 69.2786 63.8668 66.7689 63.8668 63.683C63.8668 60.5969 66.3485 58.0874 69.4 58.0874C72.4518 58.0874 74.9333 60.5971 74.9333 63.683C74.9333 66.7689 72.4518 69.2786 69.4 69.2786Z" fill="#585C59"/>
<path d="M85.7801 47.5382L73.3301 27.9534C73.2048 27.7565 73.0326 27.5945 72.8293 27.4823C72.6261 27.3701 72.3982 27.3113 72.1666 27.3113H56.9501C56.7684 27.3112 56.5885 27.3474 56.4206 27.4176C56.2528 27.4879 56.1002 27.5909 55.9718 27.7209C55.8433 27.8508 55.7414 28.005 55.6719 28.1747C55.6024 28.3445 55.5667 28.5264 55.5668 28.7101V63.6828C55.5666 63.8665 55.6023 64.0485 55.6717 64.2183C55.7412 64.3881 55.8431 64.5424 55.9715 64.6723C56.1 64.8022 56.2526 64.9052 56.4205 64.9755C56.5884 65.0457 56.7683 65.0818 56.9501 65.0816H62.4833V62.2837H58.3333V30.1091H71.4113L83.2333 48.7062V62.2841H76.3166V65.0818H84.6166C84.7983 65.0819 84.9783 65.0459 85.1462 64.9756C85.3141 64.9054 85.4666 64.8024 85.5951 64.6724C85.7236 64.5425 85.8255 64.3882 85.8949 64.2184C85.9644 64.0486 86.0001 63.8667 85.9999 63.6829V48.2949C86.0001 48.0265 85.9238 47.7638 85.7801 47.5382Z" fill="#585C59"/>
<path d="M63.8667 45.4971V35.7048H74.9334V32.9069H62.4834C62.3018 32.9068 62.1219 32.943 61.954 33.0133C61.7862 33.0835 61.6336 33.1866 61.5052 33.3165C61.3767 33.4464 61.2748 33.6006 61.2053 33.7704C61.1358 33.9401 61.1001 34.122 61.1002 34.3058V46.8959C61.1 47.0797 61.1357 47.2617 61.2051 47.4315C61.2746 47.6012 61.3765 47.7555 61.5049 47.8855C61.6334 48.0154 61.786 48.1184 61.9539 48.1887C62.1218 48.2589 62.3017 48.295 62.4834 48.2948H83.2334V45.4969H63.8667V45.4971ZM56.95 17.519H4.38328C4.01645 17.5192 3.66468 17.6666 3.4053 17.9289C3.14591 18.1912 3.00013 18.5469 3 18.9179V63.683C2.99994 63.8667 3.03567 64.0486 3.10517 64.2184C3.17466 64.3881 3.27655 64.5424 3.40501 64.6723C3.53347 64.8022 3.68599 64.9052 3.85385 64.9755C4.0217 65.0458 4.20161 65.0819 4.38328 65.0818H15.45V62.284H5.76672V20.3167H55.5667V62.284H29.2833V65.0818H56.95C57.1317 65.082 57.3117 65.0459 57.4796 64.9757C57.6475 64.9055 57.8 64.8024 57.9285 64.6725C58.057 64.5426 58.1589 64.3883 58.2283 64.2185C58.2978 64.0487 58.3335 63.8667 58.3333 63.683V18.9179C58.3333 18.7342 58.2976 18.5522 58.2281 18.3825C58.1586 18.2128 58.0567 18.0585 57.9283 17.9286C57.7998 17.7987 57.6473 17.6957 57.4794 17.6254C57.3116 17.5551 57.1317 17.519 56.95 17.519Z" fill="#585C59"/>
<path d="M4.38328 56.6884H12.6833V59.4863H4.38328V56.6884ZM32.05 56.6884H55.5667V59.4863H32.05V56.6884ZM79.0833 56.6884H84.6166V59.4863H79.0833V56.6884ZM8.53328 23.1147H56.95V25.9125H8.53328V23.1147ZM20.9833 62.284H23.75V65.0819H20.9833V62.284ZM68.0167 62.284H70.7834V65.0819H68.0167V62.284ZM8.53328 11.9233H27.9V14.7212H8.53328V11.9233ZM3 11.9233H5.76672V14.7212H3V11.9233Z" fill="#585C59"/>
</g>
<defs>
<clipPath id="clip0_353_89">
<rect width="83" height="60" fill="white" transform="translate(3 12)"/>
</clipPath>
</defs>
</svg>
