<svg width="14" height="14" viewBox="0 0 14 14" fill="none" xmlns="http://www.w3.org/2000/svg">
<g clip-path="url(#clip0_8_1346)">
<path d="M7 0C4.96456 0 3.30859 1.65596 3.30859 3.69141C3.30859 5.72685 4.96456 7.38281 7 7.38281C9.03544 7.38281 10.6914 5.72685 10.6914 3.69141C10.6914 1.65596 9.03544 0 7 0ZM7 6.5625C5.41688 6.5625 4.12891 5.27453 4.12891 3.69141C4.12891 2.10829 5.41688 0.820312 7 0.820312C8.58312 0.820312 9.87109 2.10829 9.87109 3.69141C9.87109 5.27453 8.58312 6.5625 7 6.5625ZM11.5928 9.79439C10.5822 8.76824 9.24243 8.20312 7.82031 8.20312H6.17969C4.75759 8.20312 3.4178 8.76824 2.40718 9.79439C1.4015 10.8155 0.847656 12.1634 0.847656 13.5898C0.847656 13.8164 1.0313 14 1.25781 14H12.7422C12.9687 14 13.1523 13.8164 13.1523 13.5898C13.1523 12.1634 12.5985 10.8155 11.5928 9.79439ZM1.68602 13.1797C1.8915 10.8531 3.82843 9.02344 6.17969 9.02344H7.82031C10.1716 9.02344 12.1085 10.8531 12.314 13.1797H1.68602Z" fill="#EECD15"/>
</g>
<defs>
<clipPath id="clip0_8_1346">
<rect width="14" height="14" fill="white"/>
</clipPath>
</defs>
</svg>
