<svg width="25" height="25" viewBox="0 0 25 25" fill="none" xmlns="http://www.w3.org/2000/svg">
<path d="M22.4582 11.1865L21.0415 9.54065C20.7707 9.22815 20.5519 8.64482 20.5519 8.22815V6.45732C20.5519 5.35315 19.6457 4.4469 18.5415 4.4469H16.7707C16.3644 4.4469 15.7707 4.22815 15.4582 3.95732L13.8123 2.54065C13.0936 1.92607 11.9165 1.92607 11.1873 2.54065L9.55192 3.96773C9.23942 4.22815 8.64567 4.4469 8.23942 4.4469H6.43734C5.33317 4.4469 4.42692 5.35315 4.42692 6.45732V8.23857C4.42692 8.64482 4.20817 9.22815 3.94775 9.54065L2.5415 11.1969C1.93734 11.9156 1.93734 13.0823 2.5415 13.8011L3.94775 15.4573C4.20817 15.7698 4.42692 16.3531 4.42692 16.7594V18.5406C4.42692 19.6448 5.33317 20.5511 6.43734 20.5511H8.23942C8.64567 20.5511 9.23942 20.7698 9.55192 21.0406L11.1978 22.4573C11.9165 23.0719 13.0936 23.0719 13.8228 22.4573L15.4686 21.0406C15.7811 20.7698 16.3644 20.5511 16.7811 20.5511H18.5519C19.6561 20.5511 20.5623 19.6448 20.5623 18.5406V16.7698C20.5623 16.3636 20.7811 15.7698 21.0519 15.4573L22.4686 13.8115C23.0728 13.0927 23.0728 11.9052 22.4582 11.1865ZM16.8332 10.5302L11.8019 15.5615C11.6554 15.7078 11.4569 15.79 11.2498 15.79C11.0428 15.79 10.8442 15.7078 10.6978 15.5615L8.17692 13.0406C7.87484 12.7386 7.87484 12.2386 8.17692 11.9365C8.479 11.6344 8.979 11.6344 9.28109 11.9365L11.2498 13.9052L15.729 9.42607C16.0311 9.12398 16.5311 9.12398 16.8332 9.42607C17.1353 9.72815 17.1353 10.2281 16.8332 10.5302Z" fill="#02BA43"/>
</svg>
