<svg width="49" height="49" viewBox="0 0 49 49" fill="none" xmlns="http://www.w3.org/2000/svg">
<g clip-path="url(#clip0_11_1446)">
<path d="M46.1296 20.1594C45.3377 19.47 47.4761 21.332 46.1296 20.1594V20.1594Z" fill="white"/>
<path d="M46.1296 20.1595C45.2559 19.3985 44.1152 18.6042 44.1667 17.3273C44.222 15.9651 44.7257 14.6514 44.9017 13.3034C45.0638 12.0608 44.9644 10.7275 44.0574 9.77542C43.2518 8.92919 42.065 8.62441 40.9459 8.46516C39.693 8.2868 38.3195 8.36667 37.1205 7.92371C36.0047 7.51064 35.5887 5.96126 35.1658 4.97342C34.7195 3.9307 34.2407 2.83751 33.4205 2.02803C32.4802 1.09948 31.2032 0.849091 29.9464 1.21463C28.5121 1.63211 27.3092 2.57585 25.997 3.25303C25.5138 3.50293 24.9459 3.78762 24.3854 3.74107C23.7312 3.68668 23.1025 3.3182 22.5439 3.00215C21.2788 2.28675 20.0288 1.3582 18.5676 1.09899C17.3029 0.874571 16.1323 1.35428 15.312 2.32105C14.5574 3.2104 14.1169 4.32074 13.6637 5.38159C13.1884 6.49585 12.7709 7.73114 11.4812 8.04376C9.28257 8.57737 6.20537 7.99966 4.68049 10.0944C3.90531 11.1592 3.96117 12.5366 4.17432 13.7733C4.3958 15.0552 4.95489 16.4223 4.82847 17.736C4.71822 18.8816 3.33103 19.7557 2.5436 20.4486C1.64494 21.239 0.700224 22.1063 0.247464 23.2426C-0.796727 25.8631 1.66944 27.7506 3.38101 29.2809C3.82593 29.6792 4.30466 30.0982 4.61777 30.6132C4.92157 31.1135 4.8564 31.7318 4.77506 32.285C4.57661 33.6374 4.11846 34.9457 4.04349 36.3172C3.97538 37.5623 4.31495 38.8006 5.34885 39.5787C6.28083 40.2804 7.49358 40.4774 8.6245 40.6018C9.25709 40.6709 9.89262 40.7121 10.5242 40.7895C11.1088 40.861 11.8124 40.9301 12.3044 41.2883C12.7498 41.6127 13.0149 42.1928 13.2452 42.675C13.5368 43.2855 13.7842 43.9152 14.0601 44.5316C14.5172 45.5547 15.0631 46.6264 15.9819 47.3119C17.0976 48.1444 18.4701 48.064 19.7049 47.551C21.0685 46.9846 22.2294 46.0207 23.5969 45.4665C24.8827 44.9466 25.9975 45.7115 27.0887 46.3593C28.3049 47.0821 29.6269 47.9567 31.0959 47.9567C32.3351 47.9567 33.3362 47.2315 34.0197 46.2456C34.7131 45.2455 35.1178 44.0847 35.6152 42.9842C35.8572 42.4481 36.115 41.8596 36.532 41.4338C36.9392 41.0183 37.5923 40.9169 38.1416 40.8355C40.33 40.5082 43.5135 40.7856 44.6312 38.3777C45.179 37.1988 44.9654 35.8233 44.7086 34.5993C44.5704 33.9368 44.4023 33.2817 44.2823 32.6163C44.1814 32.0552 44.0446 31.3614 44.2794 30.815C44.7145 29.8032 45.8846 29.0638 46.6799 28.3518C47.5021 27.6158 48.3395 26.7975 48.755 25.7533C49.6943 23.3974 47.7432 21.5643 46.1296 20.1595ZM46.5265 24.6994C46.2967 25.6333 45.2177 26.3835 44.5312 26.9788C44.764 26.777 44.96 26.6055 44.5209 26.9877C43.538 27.8442 42.434 28.7541 41.9636 30.0129C41.4398 31.4128 41.8343 32.975 42.1513 34.3749C42.3321 35.1711 43.0098 37.0488 42.1395 37.652C41.7078 37.9514 41.1208 38.0318 40.6137 38.1038C39.9139 38.2023 39.2079 38.2454 38.5052 38.3199C37.2376 38.4556 35.8822 38.6884 34.9159 39.59C33.9546 40.4867 33.4611 41.7778 32.9569 42.9607C32.6365 43.7109 32.0666 45.6003 30.9857 45.5008C30.3869 45.4455 29.8097 45.1025 29.2971 44.8139C28.6131 44.4282 27.9526 44.0034 27.2592 43.6359C25.9685 42.9519 24.6225 42.5677 23.1858 43.0146C21.7594 43.4585 20.5624 44.392 19.2453 45.0657C18.8239 45.2808 18.181 45.638 17.688 45.4744C17.1956 45.3146 16.8879 44.7163 16.6644 44.2935C16.0362 43.1047 15.6496 41.7984 14.9386 40.6518C14.2326 39.5121 13.2344 38.8363 11.932 38.5423C10.6168 38.2459 9.25611 38.2841 7.93556 38.0283C7.51269 37.946 6.93596 37.8343 6.66352 37.4599C6.35384 37.0341 6.48075 36.3344 6.55425 35.8576C6.7772 34.4058 7.29415 32.9911 7.2917 31.5089C7.28925 30.0698 6.59296 28.9663 5.59091 27.9877C4.6408 27.0592 3.37268 26.2786 2.66953 25.1301C1.99382 24.0251 3.34965 23.0079 4.09102 22.3527C5.09062 21.4688 6.22987 20.6079 6.85756 19.3995C7.54258 18.0795 7.27896 16.5482 6.97614 15.1605C6.82914 14.4887 6.65911 13.8199 6.55474 13.1393C6.48124 12.6615 6.35384 11.9623 6.66401 11.5365C6.93645 11.1621 7.51318 11.0504 7.93654 10.9681C8.62156 10.8353 9.32128 10.7887 10.0146 10.7241C11.2891 10.606 12.6812 10.4663 13.7484 9.69016C14.8054 8.92086 15.3605 7.64833 15.8598 6.4836C16.1161 5.88531 16.3601 5.27918 16.6649 4.70343C16.8884 4.28056 17.1961 3.68178 17.6885 3.52204C18.1859 3.36279 18.8199 3.71363 19.2453 3.93119C19.942 4.28791 20.6001 4.7147 21.2797 5.1018C22.5209 5.80887 23.8767 6.40961 25.3325 6.10924C26.7864 5.80887 28.027 4.89845 29.2971 4.18207C29.8097 3.89297 30.3874 3.55046 30.9861 3.49509C31.5247 3.44511 31.8667 3.90424 32.122 4.31584C33.4866 6.51055 33.7831 9.4922 36.6216 10.336C37.6002 10.6266 38.6306 10.6893 39.6415 10.7834C40.4231 10.8559 41.6985 10.8456 42.286 11.4674C42.826 12.0387 42.4384 13.3039 42.2988 13.9581C42.0513 15.1208 41.7132 16.288 41.7157 17.4861C41.7196 19.8361 43.5997 21.1508 45.1765 22.5865C45.695 23.0579 46.7279 23.8791 46.5265 24.6994Z" fill="white"/>
<path d="M31.9519 18.082L22.5366 28.3436C22.4209 28.47 22.416 28.5543 22.2676 28.4661L20.9431 27.6855L17.2024 25.481C16.7575 25.2188 16.3322 24.942 15.7834 25.1145C14.7745 25.4305 14.6446 26.8182 15.5413 27.3464L18.3765 29.0173L21.7844 31.0253C22.5087 31.4521 23.1471 31.3017 23.6974 30.7024L28.7949 25.1453L32.8766 20.6961L33.736 19.7598C34.816 18.5828 33.0324 16.9031 31.9519 18.082Z" fill="white"/>
</g>
<defs>
<clipPath id="clip0_11_1446">
<rect width="49" height="49" fill="white"/>
</clipPath>
</defs>
</svg>
