<svg width="15" height="13" viewBox="0 0 15 13" fill="none" xmlns="http://www.w3.org/2000/svg">
<path d="M8.37384 0.619685C8.37384 1.07273 8.39804 1.47581 8.44644 1.82892C8.49485 2.18203 8.58359 2.55846 8.71266 2.95821C9.01384 3.87763 9.45485 4.68379 10.0357 5.37669C10.1755 5.54992 10.2454 5.64319 10.2454 5.65651C10.2454 5.66984 8.53518 5.6765 5.11466 5.6765H0L0.0161346 7.15557L10.2454 7.19555L10.0357 7.4354C9.45485 8.12829 9.01384 8.93445 8.71266 9.85387C8.58359 10.2536 8.49485 10.6301 8.44644 10.9832C8.39804 11.3363 8.37384 11.7394 8.37384 12.1924V12.812H9.58393V12.2524C9.58393 11.8126 9.61082 11.4329 9.6646 11.1131C9.71838 10.7933 9.80981 10.4602 9.93889 10.1137C10.0572 9.82056 10.1809 9.56072 10.31 9.3342C10.4391 9.10768 10.595 8.88115 10.7779 8.65463C11.0683 8.29485 11.3641 8.00504 11.6653 7.78518C11.9665 7.56531 12.3053 7.39542 12.6818 7.2755C12.8001 7.24885 12.9076 7.22886 13.0045 7.21553C13.1013 7.20221 13.2841 7.18888 13.553 7.17556L14.15 7.15557V5.63653H13.6337C13.354 5.63653 13.1228 5.61987 12.9399 5.58656C12.7571 5.55325 12.5581 5.48995 12.3429 5.39668C11.6438 5.10353 11.0441 4.59052 10.5439 3.85765C10.0438 3.12477 9.73452 2.31195 9.6162 1.41918C9.58393 1.13936 9.57317 0.852871 9.58393 0.559723V7.47871e-05H8.37384V0.619685Z" fill="white"/>
</svg>
