<svg width="23" height="13" viewBox="0 0 23 13" fill="none" xmlns="http://www.w3.org/2000/svg">
<path d="M13.2218 0.807673C13.2218 1.26072 13.2601 1.6638 13.3365 2.01691C13.4129 2.37002 13.553 2.74645 13.7568 3.1462C14.2324 4.06562 14.9287 4.87178 15.8458 5.56468C16.0666 5.7379 16.177 5.83118 16.177 5.8445C16.177 5.85783 13.4766 5.86449 8.07577 5.86449H0L0.0254756 7.34356L16.177 7.38353L15.8458 7.62338C14.9287 8.31628 14.2324 9.12244 13.7568 10.0419C13.553 10.4416 13.4129 10.818 13.3365 11.1712C13.2601 11.5243 13.2218 11.9273 13.2218 12.3804V13H15.1325V12.4404C15.1325 12.0006 15.175 11.6209 15.2599 11.3011C15.3448 10.9813 15.4892 10.6481 15.693 10.3017C15.8798 10.0085 16.0751 9.74871 16.2789 9.52219C16.4827 9.29566 16.729 9.06914 17.0177 8.84262C17.4763 8.48284 17.9433 8.19303 18.4189 7.97316C18.8944 7.7533 19.4294 7.58341 20.0238 7.46348C20.2107 7.43683 20.3805 7.41685 20.5334 7.40352C20.6862 7.3902 20.9749 7.37687 21.3995 7.36355L22.3421 7.34356V5.82452H21.5269C21.0853 5.82452 20.7202 5.80786 20.4314 5.77455C20.1427 5.74123 19.8285 5.67794 19.4889 5.58467C18.3849 5.29152 17.4381 4.77851 16.6483 4.04564C15.8586 3.31276 15.3703 2.49994 15.1835 1.60717C15.1325 1.32735 15.1155 1.04086 15.1325 0.747711V0.188063H13.2218V0.807673Z" fill="white"/>
</svg>
